/* XPM */
static char *result[] = {
/* columns rows colors chars-per-pixel */
"64 64 40 1 ",
"  c black",
". c #00001C",
"X c #00002C",
"o c #000034",
"O c #202020",
"+ c #2C2C2C",
"@ c gray22",
"# c #483818",
"$ c #6C4824",
"% c #744C28",
"& c #484848",
"* c gray33",
"= c #646464",
"- c gray44",
"; c #7C7C7C",
": c #A85400",
"> c #80502C",
", c #9C6038",
"< c #A0643C",
"1 c #FC7800",
"2 c #A86840",
"3 c #BC7848",
"4 c #C87C4C",
"5 c #D08050",
"6 c #DC8854",
"7 c #E88C58",
"8 c #F0945C",
"9 c #0004FC",
"0 c gray55",
"q c #989898",
"w c gray66",
"e c #B4B4B4",
"r c #FCB080",
"t c #FCB890",
"y c #FCBC9C",
"u c #C0C0C0",
"i c #D0D0D0",
"p c gainsboro",
"a c #ECECEC",
"s c None",
/* pixels */
"ssssssssssssssssssssssssssssssssssssssssssssssssssssssssssssssss",
"ssssssssssssssssssssssssssssssssssssssssssssssssssssssssssssssss",
"ssssssssssssssssssssssssssssssssssssssssssssssssssssssssssssssss",
"ssssssssssssssssssssssssssssssssssssssssssssssssssssssssssssssss",
"ssssssssssssssssssssssssssssssssssssssssssssssssssssssssssssssss",
"ssssssssssssssssssssssssssssssssssssssssssssssssssssssssssssssss",
"ssssssssssssssssssssssssssssssssssssssssssssssssssssssssssssssss",
"ssssssssssssssssssssssssssssssssssssssssssssssssssssssssssssssss",
"ssssssssssssssssssssssssssssssssssssssssssssssssssssssssssssssss",
"ssssssssssssssssssssssssssssssssssssssssssssssssssssssssssssssss",
"ssssssssssssssssssssssssssssssssssssssssssssssssssssssssssssssss",
"ssssssssssssssssssssssssssssssssssssssssssssssssssssssssssssssss",
"ssssssssssssssssssssssssssssssssssssssssssssssssssssssssssssssss",
"ssssssssssssssssssssssssssssssssssssssssssssssssssssssssssssssss",
"ssssssssssssssssssssssssssssssssssssssssssssssssssssssssssssssss",
"ssssssssssssssssssssssssssssssssssssssssssssssssssssssssssssssss",
"ssssssssssssssssssssssssssww0;*&ssssssssssssssssssssssssssssssss",
"ssssssssssssssssssssssssswi0**&@&sssssssssssssssssssssssssssssss",
"sssssssssssssssssssssssss00=**&@Osssssssssssssssssssssssssssssss",
"sssssssssssssssssssssssssq;-**&@Osssssssssssssssssssssssssssssss",
"ssssssssssssssssssssssssquau0-=*+Ossssssssssssssssssssssssssssss",
"sssssssssssssssssssssssqq+++++++ +Osssssssssssssssssssssssssssss",
"sssssssssssssssssssssssss%29r392%sssssssssssssssssssssssssssssss",
"sssssssssssssssssssssssss#8y52y8#sssssssssssssssssssssssssssssss",
"sssssssssssssssssssssssss ,uOO7# sssssssssssssssssssssssssssssss",
"ssssssssssssssssssssssss >4uOO=4> ssssssssssssssssssssssssssssss",
"ssssssssssssssssssssseppeep&--&pppppssssssssssssssssssssssssssss",
"ssssssssssssssssssssepppppttt5<qqpppesssssssssssssssssssssssssss",
"sssssssssssssssssssseppppptt5<<;qqeeesssssssssssssssssssssssssss",
"sssssssssssssssssssssuuwwqtt5<<;;qq0-sssssssssssssssssssssssssss",
"ssssssssssssssssssssseqq;=O&;0iie0=**sssssssssssssssssssssssssss",
"ssssssssssssssssssssseq;;;OO&;eee0;=*sssssssssssssssssssssssssss",
"sssssssssssssssssssssep0;;;OO&;w0;;=*sssssssssssssssssssssssssss",
"sssssssssssssssssssssspe0-;;OOO-;;-=*sssssssssssssssssssssssssss",
"sssssssssssssssssssssspe00-0-OOO;-=*ssssssssssssssssssssssssssss",
"sssssssssssssssssssssssp*-*--*OOO-*@ssssssssssssssssssssssssssss",
"sssssssssssssssssssssss  OOO63,OOO  ssssssssssssssssssssssssssss",
"sssssssssssssssssssssssOOOOO1:$OOO  ssssssssssssssssssssssssssss",
"ssssssssssssssssssssssswwww;;&;;;;=&ssssssssssssssssssssssssssss",
"ssssssssssssssssssssssswaaee;=eaaaq;=sssssssssssssssssssssssssss",
"sssssssssssssssssssssseaaaee;=puuuuq;sssssssssssssssssssssssssss",
"sssssssssssssssssssssseaaeeq=&;pppppesssssssssssssssssssssssssss",
"ssssssssssssssssssssss;aaeeq=&qpwwww;;ssssssssssssssssssssssssss",
"ssssssssssssssssssssssp;;;;;&-q-ppppw;ssssssssssssssssssssssssss",
"ssssssssssssssssssssssppq0;==-qwppppe;ssssssssssssssssssssssssss",
"ssssssssssssssssssssspaeq0;==-qeipppuqssssssssssssssssssssssssss",
"sssssssssssssssssssssaaeq;;==sqeippppiqsssssssssssssssssssssssss",
"sssssssssssssssssssssiaeq;;=*sseeipppiqsssssssssssssssssssssssss",
"ssssssssssssssssssssiieeq;==*ssqeipppiisssssssssssssssssssssssss",
"ssssssssssssssssssssieqw;-;=@ssqqupppiisssssssssssssssssssssssss",
"sssssssssssssssssssse0-qq0*&*sssquppppiissssssssssssssssssssssss",
"ssssssssssssssssssss;====;=*ssssuipuuuwp-sssssssssssssssssssssss",
"ssssssssssssssssssss ====*@Ossssuueww00&ssssssssssssssssssssssss",
"ssssssssssssssssssss  &&&@ sssss=&0000-@ssssssssssssssssssssssss",
"ssssssssssssssssssss  o .. ssssss=-=*&@+ssssssssssssssssssssssss",
"ssssssssssssssssssss    . sssssssooX .  ssssssssssssssssssssssss",
"sssssssssssssssssssss      sssssssoX..  ssssssssssssssssssssssss",
"sssssssssssssssssssss      sssssssooX.. ssssssssssssssssssssssss",
"sssssssssssssssssssso  X.  ssssssss XX. ssssssssssssssssssssssss",
"ssssssssssssssssssssoXXXO sssssssss     ssssssssssssssssssssssss",
"ssssssssssssssssssssXXXXXssssssssssoo.   sssssssssssssssssssssss",
"sssssssssssssssssssssssssssssssssssooo.  sssssssssssssssssssssss",
"ssssssssssssssssssssssssssssssssssooooX. sssssssssssssssssssssss",
"ssssssssssssssssssssssssssssssssss XX... sssssssssssssssssssssss"
};
