/* XPM */
static char *result[] = {
/* columns rows colors chars-per-pixel */
"64 64 134 2 ",
"   c #14131A",
".  c #1E1825",
"X  c #1F1D29",
"o  c #211D2C",
"O  c #291F2E",
"+  c #3E1A27",
"@  c #381D2B",
"#  c #221F31",
"$  c #1F2033",
"%  c #22202D",
"&  c #242233",
"*  c #292636",
"=  c #2B2837",
"-  c #272438",
";  c #292739",
":  c #2D2B3D",
">  c #332536",
",  c #35263A",
"<  c #332C3C",
"1  c #3B2A3D",
"2  c #30303F",
"3  c #441A27",
"4  c #441B2B",
"5  c #631F30",
"6  c #731F34",
"7  c #412436",
"8  c #4B293E",
"9  c #572235",
"0  c #58263B",
"q  c #54293D",
"w  c #622437",
"e  c #7C263D",
"r  c #2F2D40",
"t  c #312E41",
"y  c #2E3041",
"u  c #333243",
"i  c #3D3243",
"p  c #363748",
"a  c #383749",
"s  c #373849",
"d  c #3A3B4C",
"f  c #3D3F50",
"g  c #442B40",
"h  c #4D2E40",
"j  c #562B40",
"k  c #403343",
"l  c #443648",
"z  c #433C4D",
"x  c #553E4B",
"c  c #593C49",
"v  c #643142",
"b  c #7E3950",
"n  c #3E4152",
"m  c #424455",
"M  c #4D4453",
"N  c #44465A",
"B  c #46495B",
"V  c #4B4A5A",
"C  c #564857",
"Z  c #5F4B5A",
"A  c #6C4956",
"S  c #6E515E",
"D  c #4B4E63",
"F  c #4E5267",
"G  c #4F5268",
"H  c #51556B",
"J  c #585C75",
"K  c #921D2F",
"L  c #8C1D32",
"P  c #9D1E34",
"I  c #84233C",
"U  c #8E263D",
"Y  c #9E223E",
"T  c #A6243C",
"R  c #B02138",
"E  c #C01F36",
"W  c #C02037",
"Q  c #C5213C",
"!  c #D32039",
"~  c #E5213D",
"^  c #832E41",
"/  c #9B2641",
"(  c #96354E",
")  c #A32642",
"_  c #AE2941",
"`  c #C02542",
"'  c #C82745",
"]  c #DD2544",
"[  c #EC2242",
"{  c #E72E4C",
"}  c #E92848",
"|  c #FE2144",
" . c #F62749",
".. c #FF2748",
"X. c #FD2C4B",
"o. c #E83651",
"O. c #FB3651",
"+. c #FF3955",
"@. c #FF3F59",
"#. c #83545F",
"$. c #AF465A",
"%. c #A84D5F",
"&. c #AF636A",
"*. c #A76D75",
"=. c #B06971",
"-. c #AD7077",
";. c #BE747A",
":. c #C9455A",
">. c #EA4A5B",
",. c #FF465D",
"<. c #DF5062",
"1. c #FF5266",
"2. c #FF5769",
"3. c #FF596B",
"4. c #D27B7F",
"5. c #FF606F",
"6. c #FF6271",
"7. c #F66874",
"8. c #FF6976",
"9. c #FF6E79",
"0. c #FF727C",
"q. c #F1797F",
"w. c #D07D81",
"e. c #DA7D81",
"r. c #EB7D83",
"t. c #FF7C82",
"y. c #EB898A",
"u. c #FF8286",
"i. c #FF8689",
"p. c #F2898A",
"a. c #FF8E8E",
"s. c #FF908F",
"d. c #FF9191",
"f. c None",
/* pixels */
"f.f.f.f.f.f.f.f.f.f.f.f.f.f.f.f.f.f.f.f.f.f.f.f.f.f.f.f.f.f.f.f.f.f.f.f.f.f.f.f.f.f.f.f.f.f.f.f.f.f.f.f.f.f.f.f.f.f.f.f.f.f.f.f.",
"f.f.f.f.f.f.f.f.f.f.f.f.f.f.f.f.f.f.f.f.f.f.f.f.f.f.f.f.f.f.f.f.f.f.f.f.f.f.f.f.f.f.f.f.f.f.f.f.f.f.f.f.f.f.f.f.f.f.f.f.f.f.f.f.",
"f.f.f.f.f.f.f.f.f.f.f.f.f.f.f.f.f.f.f.f.f.f.f.f.f.f.f.f.f.f.f.f.f.f.f.f.f.f.f.f.f.f.f.f.f.f.f.f.f.f.f.f.f.f.f.f.f.f.f.f.f.f.f.f.",
"f.f.f.f.f.f.f.f.f.f.f.f.f.f.f.f.f.f.f.f.f.f.f.f.f.f.f.f.f.f.f.f.f.f.f.f.f.f.f.f.f.f.f.f.f.f.f.f.f.f.f.f.f.f.f.f.f.f.f.f.f.f.f.f.",
"f.f.f.f.f.f.f.f.f.f.f.f.f.f.f.f.f.f.f.f.f.f.f.f.f.f.f.f.f.f.f.f.f.f.f.f.f.f.f.f.f.f.f.f.f.f.f.f.f.f.f.f.f.f.f.f.f.f.f.f.f.f.f.f.",
"f.f.f.f.f.f.f.f.f.f.f.f.f.f.f.f.f.f.f.f.f.f.f.f.f.f.f.f.f.f.f.f.f.f.f.f.f.f.f.f.f.f.f.f.f.f.f.f.f.f.f.f.f.f.f.f.f.f.f.f.f.f.f.f.",
"f.f.f.f.f.f.f.f.f.f.f.f.f.f.f.f.f.f.f.f.f.f.f.f.f.f.f.f.f.f.f.f.f.f.f.f.f.f.f.f.f.f.f.f.f.f.f.f.f.f.f.f.f.f.f.f.f.f.f.f.f.f.f.f.",
"f.f.f.f.f.f.f.f.f.f.f.f.f.f.f.f.f.f.f.f.f.f.f.f.f.f.f.p f f.1.+...f.f.: d f.f.f.f.f.f.f.f.f.f.f.f.f.f.f.f.f.f.f.f.f.f.f.f.f.f.f.",
"f.f.f.f.f.f.f.f.f.f.f.f.f.f.f.f.f.f.f.f.f.f.f.f.f.f.< a f.d.3.,.f.f.f.f.N J f.f.f.f.f.f.f.f.f.f.f.f.f.f.f.f.f.f.f.f.f.f.f.f.f.f.",
"f.f.f.f.f.f.f.f.f.f.f.f.f.f.f.f.f.f.f.f.f.f.f.f.f.f.u m 6.t.f.f.f.f.f.f.y D f.f.f.f.f.f.f.f.f.f.f.f.f.f.f.f.f.f.f.f.f.f.f.f.f.f.",
"f.f.f.f.f.f.f.f.f.f.f.f.f.f.f.f.f.f.f.f.f.f.f.f.f.* d V 2.1.f.f.f.f.f.f.t m H f.f.f.f.f.f.f.f.f.f.f.f.f.f.f.f.f.f.f.f.f.f.f.f.f.",
"f.f.f.f.f.f.f.f.f.f.f.f.f.f.f.f.f.f.f.f.f.f.f.f.f.: N V u.@.f.f.f.f.f.f.t n G f.f.f.f.f.f.f.f.f.f.f.f.f.f.f.f.f.f.f.f.f.f.f.f.f.",
"f.f.f.f.f.f.f.f.f.f.f.f.f.f.f.f.f.f.f.f.f.f.f.f.f.: N n f.2.f.f.f.f.f.f.r n F f.f.f.f.f.f.f.f.f.f.f.f.f.f.f.f.f.f.f.f.f.f.f.f.f.",
"f.f.f.f.f.f.f.f.f.f.f.f.f.f.f.f.f.f.f.f.f.f.f.f.f.* n m f.0.9.f.f.f.f.f.p m F f.f.f.f.f.f.f.f.f.f.f.f.f.f.f.f.f.f.f.f.f.f.f.f.f.",
"f.f.f.f.f.f.f.f.f.f.f.f.f.f.f.f.f.f.f.f.f.f.f.f.f.% d m f.f.f.| | | f.f.d N F f.f.f.f.f.f.f.f.f.f.f.f.f.f.f.f.f.f.f.f.f.f.f.f.f.",
"f.f.f.f.f.f.f.f.f.f.f.f.f.f.f.f.f.f.f.f.f.f.f.f.f.o = n N f.f.f.f.f.f.p N N H f.f.f.f.f.f.f.f.f.f.f.f.f.f.f.f.f.f.f.f.f.f.f.f.f.",
"f.f.f.f.f.f.f.f.f.f.f.f.f.f.f.f.f.f.f.f.f.f.f.f.f.f.o : d N f.f.f.f.u n N D f.f.f.f.f.f.f.f.f.f.f.f.f.f.f.f.f.f.f.f.f.f.f.f.f.f.",
"f.f.f.f.f.f.f.f.f.f.f.f.f.f.f.f.f.f.f.f.f.f.f.f.f.f.f.* t d n u u a n N D f.f.f.f.f.f.f.f.f.f.f.f.f.f.f.f.f.f.f.f.f.f.f.f.f.f.f.",
"f.f.f.f.f.f.f.f.f.f.f.f.f.f.f.f.f.f.f.f.f.f.f.f.f.f.f.f.* < d m N m N D f.f.f.f.f.f.f.f.f.f.f.f.f.f.f.f.f.f.f.f.f.f.f.f.f.f.f.f.",
"f.f.f.f.f.f.f.f.f.f.f.f.f.f.f.f.f.f.f.f.f.f.f.f.f.f.f.f.f.o : d m N H f.f.f.f.f.f.f.f.f.f.f.f.f.f.f.f.f.f.f.f.f.f.f.f.f.f.f.f.f.",
"f.f.f.f.f.f.f.f.f.f.f.f.f.f.f.f.f.f.f.f.f.f.f.f.f.f.f.  f.f.% : d N f.f.r f.f.f.f.f.f.f.f.f.f.f.f.f.f.f.f.f.f.f.f.f.f.f.f.f.f.f.",
"f.f.f.f.f.f.f.f.f.f.f.f.f.f.f.f.f.f.f.f.f.| f.f.f.f.f.. % = = 2 < n n a u f.f.f.f.f.3.f.f.f.f.f.f.f.f.f.f.f.f.f.f.f.f.f.f.f.f.f.",
"f.f.f.f.f.f.f.f.f.f.f.f.f.f.f.f.f.f.f.f.X.3.f.f.f.f.o = : & * * & u : s m u f.f.f.f.f.f.f.f.f.f.f.f.f.f.f.f.f.f.f.f.f.f.f.f.f.f.",
"f.f.f.f.f.f.f.f.f.f.f.f.f.f.f.f.f.f.f.f.i.a.f.f.f.f.o = & & : q c u : : m u f.f.f.f.f.f.f.f.f.f.f.f.f.f.f.f.f.f.f.f.f.f.f.f.f.f.",
"f.f.f.f.f.f.f.f.f.f.f.f.f.f.f.f.f.f.X.f.f.f.f.f.f.f.% & % & q o.r.Z u : a a f.f.f.f.f.f.f.f.f.f.f.f.f.f.f.f.f.f.f.f.f.f.f.f.f.f.",
"f.f.f.f.f.f.f.f.f.f.f.f.f.f.f.f.f.f.2.f.f.f.f.f.f.f.& o * = / 6.d.*.a : 2 s f.f.f.f.f.f.f.f.f.f.f.f.f.f.f.f.f.f.f.f.f.f.f.f.f.f.",
"f.f.f.f.f.f.f.f.f.f.f.f.f.f.f.f.f.f.f.f.f.f.f.f.f.* % % * 8 [ 8.d.y.C : : 2 p f.f.f.f.f.f.f.f.f.f.f.f.f.f.f.f.f.f.f.f.f.f.f.f.f.",
"f.f.f.f.f.f.f.f.f.f.f.f.f.f.f.f.f.f.f.f.f.f.f.f.f.* % % : / | >.a.8.%.y : : y f.f.f.f.f.f.f.f.f.f.f.f.f.f.f.f.f.f.f.f.f.f.f.f.f.",
"f.f.f.f.f.f.f.f.f.f.f.f.f.f.f.f.f.f.f.f.f.f.f.f.f.. X % : e ! ! O...( f : > 0 , f.f.f.f.f.f.f.f.f.f.f.f.f.f.f.f.f.f.f.f.f.f.f.f.",
"f.f.f.f.f.f.f.f.f.f.f.f.f.f.f.f.f.f.f.f.f.f.f.f.% . % X % = R ! | ] z y : T } j f.f.f.f.f.f.f.f.f.f.f.f.f.f.f.f.f.f.f.f.f.f.f.f.",
"f.f.f.f.f.f.f.f.f.f.f.f.f.f.f.f.f.f.f.f.f.f.f.f.& * % % & % 5 ! | e = : < <.r.x f.f.f.f.f.f.f.f.f.f.f.f.f.f.f.f.f.f.f.f.f.f.f.f.",
"f.f.f.f.f.f.f.f.f.f.f.f.f.f.f.f.f.f.f.f.f.f.f.f.I ^ = > % * 1 T _ 8 : : m w.-.z f.f.f.f.f.f.f.f.f.f.f.f.f.f.f.f.f.f.f.f.f.f.f.f.",
"f.f.f.f.f.f.f.f.f.f.f.f.f.f.f.f.f.f.f.f.f.f.f.6 U 8.M 9 7 % % 2 1 : : n m M m d =.f.f.f.f.f.f.f.f.f.f.f.f.f.f.f.f.f.f.f.f.f.f.f.",
"f.f.f.f.f.f.f.f.f.f.f.f.f.f.f.f.f.f.f.f.f.f.f.T % w 1 % % * & & : : a m m n d a A p.f.f.f.f.f.f.f.f.f.f.f.f.f.f.f.f.f.f.f.f.f.f.",
"f.f.f.f.f.f.f.f.f.f.f.f.f.f.f.f.f.f.f.f.f.| ~ 3 % % & * & & = = = p d n N N a t l p.s.f.f.f.f.f.f.f.f.f.f.f.f.f.f.f.f.f.f.f.f.f.",
"f.f.f.f.f.f.f.f.f.f.f.f.f.f.f.f.f.f.f.f.f.| ~ @ % % & = & & % * = d N n d d d r k e.s.f.f.f.f.f.f.f.f.f.f.f.f.f.f.f.f.f.f.f.f.f.",
"f.f.f.f.f.f.f.f.f.f.f.f.f.f.f.f.f.f.f.f...| ~ + * % % * % * % * = s n d n n s < : #.a.d.f.f.f.f.f.f.f.f.f.f.f.f.f.f.f.f.f.f.f.f.",
"f.f.f.f.f.f.f.f.f.f.f.f.f.f.f.f.f.f.f.! ~ ~ U o * * * % & % = * & : N N m n u : : i 4.t.,.f.f.f.f.f.f.f.f.f.f.f.f.f.f.f.f.f.f.f.",
"f.f.f.f.f.f.f.f.f.f.f.f.f.f.f.f.f.f.f.f.! W @ % * = % = : * = : < u n d n n u = ; : :.+.| f.f.f.f.f.f.f.f.f.f.f.f.f.f.f.f.f.f.f.",
"f.f.f.f.f.f.f.f.f.f.f.f.f.f.f.f.f.f.f.f.! Y X % % % * = * & : v &.M n a n : u : : : / | | f.f.f.f.f.f.f.f.f.f.f.f.f.f.f.f.f.f.f.",
"f.f.f.f.f.f.f.f.f.f.f.f.f.f.f.f.f.f.f.f.! K o & % * * * * % q { a.;.d m p : : : r : 8 [ f.f.f.f.f.f.f.f.f.f.f.f.f.f.f.f.f.f.f.f.",
"f.f.f.f.f.f.f.f.f.f.f.f.f.f.f.f.f.f.f.f.W 3 % % & % % * & * ) X.i.p.S m p : < r r r r / f.f.f.f.f.f.f.f.f.f.f.f.f.f.f.f.f.f.f.f.",
"f.f.f.f.f.f.f.f.f.f.f.f.f.f.f.f.f.f.f.f.3 & & % * * % * & 1 ! X.0.0.$.n p : r < r r r j f.f.f.f.f.f.f.f.f.f.f.f.f.f.f.f.f.f.f.f.",
"f.f.f.f.f.f.f.f.f.f.f.f.f.f.f.f.f.f.f.f.& & % * = * & % % = U ! [  .b s u r : : : r r ; f.f.f.f.f.f.f.f.f.f.f.f.f.f.f.f.f.f.f.f.",
"f.f.f.f.f.f.f.f.f.f.f.f.f.f.f.f.f.f.f.f.= & & * & * & * & - q W ~ ' m u < : : : r r : r f.f.f.f.f.f.f.f.f.f.f.f.f.f.f.f.f.f.f.f.",
"f.f.f.f.f.f.f.f.f.f.f.f.f.f.f.f.f.f.f.: = & * * * * & % & & = w _ 8 s s u : : : r t t t : f.f.f.f.f.f.f.f.f.f.f.f.f.f.f.f.f.f.f.",
"f.f.f.f.f.f.f.f.f.f.f.f.f.f.f.f.f.f.< = = = * & = & & * : * ; ; z 2 2 2 : : u : : r t : ; ; f.f.f.f.f.f.f.f.f.f.f.f.f.f.f.f.f.f.",
"f.f.f.f.f.f.f.f.f.f.f.f.f.f.f.f.f.r : & = * * = : % & ; - = : ; 2 = 2 u u u u : : : : ; & - : f.f.f.f.f.f.f.f.f.f.f.f.f.f.f.f.f.",
"f.f.f.f.f.f.f.f.f.f.f.f.f.f.f.f.: : & * : = * = = & * % # ; r ; a t a t u t t : t : - - $ $ - : f.f.f.f.f.f.f.f.f.f.f.f.f.f.f.f.",
"f.f.f.f.f.f.f.f.f.f.f.f.f.f.f.: : * & & = = = : & = = * # - ; r N t t : u t t t r t : - - $ # - : f.f.f.f.f.f.f.f.f.f.f.f.f.f.f.",
"f.f.f.f.f.f.f.f.f.f.f.f.f.f.t r * & & * % % * % * * & % & r ; : N r : t u t r : : : , - # $ $ $ - : f.f.f.f.f.f.f.f.f.f.f.f.f.f.",
"f.f.f.f.f.f.f.f.f.f.f.f.f.r : ; & & & : & & % * % % * & & ; ; ; a - : t u a t r : t - - $ $ $ - # & : f.f.f.f.f.f.f.f.f.f.f.f.f.",
"f.f.f.f.f.f.f.f.f.f.f.f.r ; ; # & & = = = % % & & & * & $ * # X o # r r t a t u t : - # - $ # # # & - r f.f.f.f.f.f.f.f.f.f.f.f.",
"f.f.f.f.f.f.f.f.f.f.f.r ; & # & & * ; = & * = % * % * % & - & # . . - , t u a t t : # - # $ - $ # # # # r f.f.f.f.f.f.f.f.f.f.f.",
"f.f.f.f.f.f.f.f.f.f.r r r # # - & = : * % * = & % & & * - - & $ . . # t t r , t : - $ $ - $ # $ - # # $ - r f.f.f.f.f.f.f.f.f.f.",
"f.f.f.f.f.f.f.f.f.f.r $ $ # # $ & : = * & % * * & * & * - - & X o . O t t t r t : - $ $ # $ - $ $ # r $ # r f.f.f.f.f.f.f.f.f.f.",
"f.f.f.f.f.f.f.f.f.f.: & # & # # - ; & * & % = = ; & # # : - # . . . O r r t r r # $ $ $ # - # - # & # & ; r f.f.f.f.f.f.f.f.f.f.",
"f.f.f.f.f.f.f.f.f.f.f.f.f.f.f.- ; * & * & & % & ; # - # ; - # . . . # r r r r r r - # - $ $ # - - f.f.f.f.f.f.f.f.f.f.f.f.f.f.f.",
"f.f.f.f.f.f.f.f.f.f.f.f.f.f.f.f.f.f.f.f.& & * % & & - r r # . . . . . ; r r r , # # # & f.f.f.f.f.f.f.f.f.f.f.f.f.f.f.f.f.f.f.f.",
"f.f.f.f.f.f.f.f.f.f.f.f.f.f.f.f.f.f.f.f.f.f.f.* % & & ; r # . . . . . O r r r - - f.f.f.f.f.f.f.f.f.f.f.f.f.f.f.f.f.f.f.f.f.f.f.",
"f.f.f.f.f.f.f.f.f.f.f.f.f.f.f.f.f.f.f.f.f.f.f.f.f.f.f.f.: # # . . . o ; f.f.f.f.f.f.f.f.f.f.f.f.f.f.f.f.f.f.f.f.f.f.f.f.f.f.f.f.",
"f.f.f.f.f.f.f.f.f.f.f.f.f.f.f.f.f.f.f.f.f.f.f.f.f.f.f.f.f.& # . . . . f.f.f.f.f.f.f.f.f.f.f.f.f.f.f.f.f.f.f.f.f.f.f.f.f.f.f.f.f.",
"f.f.f.f.f.f.f.f.f.f.f.f.f.f.f.f.f.f.f.f.f.f.f.f.f.f.f.f.f.# o . . . o f.f.f.f.f.f.f.f.f.f.f.f.f.f.f.f.f.f.f.f.f.f.f.f.f.f.f.f.f.",
"f.f.f.f.f.f.f.f.f.f.f.f.f.f.f.f.f.f.f.f.f.f.f.f.f.f.f.f.f.f.f.f.f.f.f.f.f.f.f.f.f.f.f.f.f.f.f.f.f.f.f.f.f.f.f.f.f.f.f.f.f.f.f.f."
};
