/* XPM */
static char *result[] = {
/* columns rows colors chars-per-pixel */
"64 64 130 2 ",
"   c #14131A",
".  c #1E1825",
"X  c #1F1D29",
"o  c #211D2C",
"O  c #291F2E",
"+  c #3C1A27",
"@  c #391D2B",
"#  c #221F31",
"$  c #1F2033",
"%  c #22212D",
"&  c #242233",
"*  c #292636",
"=  c #272438",
"-  c #292739",
";  c #2D2B3D",
":  c #332434",
">  c #382332",
",  c #362739",
"<  c #322C3D",
"1  c #3B2A3D",
"2  c #30303F",
"3  c #441A27",
"4  c #441B2B",
"5  c #731D2E",
"6  c #631F30",
"7  c #6D1F32",
"8  c #4B2335",
"9  c #4B293E",
"0  c #5B2437",
"q  c #54293D",
"w  c #622437",
"e  c #762035",
"r  c #7C263D",
"t  c #2E2D40",
"y  c #312E41",
"u  c #333243",
"i  c #3C3244",
"p  c #363648",
"a  c #3B3749",
"s  c #373949",
"d  c #3A3B4C",
"f  c #3D3F51",
"g  c #442B40",
"h  c #4D2E40",
"j  c #572A40",
"k  c #403343",
"l  c #443648",
"z  c #4B3749",
"x  c #463B4C",
"c  c #51384C",
"v  c #593C49",
"b  c #672C43",
"n  c #653143",
"m  c #673A4D",
"M  c #683B4D",
"N  c #7E3950",
"B  c #3E4152",
"V  c #424455",
"C  c #494454",
"Z  c #44465A",
"A  c #46495B",
"S  c #564857",
"D  c #5F4B5A",
"F  c #6B4956",
"G  c #6E515E",
"H  c #4B4E63",
"J  c #4E5267",
"K  c #4F5268",
"L  c #51556B",
"P  c #585C75",
"I  c #921D2F",
"U  c #8C1D32",
"Y  c #9C1E34",
"T  c #802237",
"R  c #8F253C",
"E  c #9E223E",
"W  c #A6243C",
"Q  c #B4243A",
"!  c #C01F36",
"~  c #DE1F3A",
"^  c #C02037",
"/  c #C5213C",
"(  c #CD2139",
")  c #D32039",
"_  c #DC213C",
"`  c #E5213E",
"'  c #EA213F",
"]  c #9B2641",
"[  c #9B2C45",
"{  c #96354E",
"}  c #A02642",
"|  c #AE2941",
" . c #C02542",
".. c #CC2744",
"X. c #CA2C4A",
"o. c #DD2544",
"O. c #E52140",
"+. c #EC2242",
"@. c #E72E4C",
"#. c #F12242",
"$. c #FE2244",
"%. c #F62749",
"&. c #FC2A4A",
"*. c #E83651",
"=. c #FB3651",
"-. c #FF3955",
";. c #83545F",
":. c #AF465A",
">. c #A84D5F",
",. c #AF636A",
"<. c #A76D75",
"1. c #AE6A71",
"2. c #BE747A",
"3. c #C9455A",
"4. c #EA4A5B",
"5. c #FF465D",
"6. c #D27B7F",
"7. c #FF6271",
"8. c #FF6976",
"9. c #FF747D",
"0. c #DA7D81",
"q. c #EB7D83",
"w. c #EB898A",
"e. c #FF8185",
"r. c #FF8689",
"t. c #F2898A",
"y. c #FE8D8D",
"u. c #FF908F",
"i. c #FF9191",
"p. c None",
/* pixels */
"p.p.p.p.p.p.p.p.p.p.p.p.p.p.p.p.p.p.p.p.p.p.p.p.p.p.p.p.p.p.p.p.p.p.p.p.p.p.p.p.p.p.p.p.p.p.p.p.p.p.p.p.p.p.p.p.p.p.p.p.p.p.p.p.",
"p.p.p.p.p.p.p.p.p.p.p.p.p.p.p.p.p.p.p.p.p.p.p.p.p.p.p.p.p.p.p.p.p.p.p.p.p.p.p.p.p.p.p.p.p.p.p.p.p.p.p.p.p.p.p.p.p.p.p.p.p.p.p.p.",
"p.p.p.p.p.p.p.p.p.p.p.p.p.p.p.p.p.p.p.p.p.p.p.p.p.p.p.p.p.p.p.p.p.p.p.p.p.p.p.p.p.p.p.p.p.p.p.p.p.p.p.p.p.p.p.p.p.p.p.p.p.p.p.p.",
"p.p.p.p.p.p.p.p.p.p.p.p.p.p.p.p.p.p.p.p.p.p.p.p.p.p.p.p.p.p.p.p.p.p.p.p.p.p.p.p.p.p.p.p.p.p.p.p.p.p.p.p.p.p.p.p.p.p.p.p.p.p.p.p.",
"p.p.p.p.p.p.p.p.p.p.p.p.p.p.p.p.p.p.p.p.p.p.p.p.p.p.p.p.p.p.p.p.p.p.p.p.p.p.p.p.p.p.p.p.p.p.p.p.p.p.p.p.p.p.p.p.p.p.p.p.p.p.p.p.",
"p.p.p.p.p.p.p.p.p.p.p.p.p.p.p.p.p.p.p.p.p.p.p.p.p.p.p.p.p.p.p.p.p.p.p.p.p.p.p.p.p.p.p.p.p.p.p.p.p.p.p.p.p.p.p.p.p.p.p.p.p.p.p.p.",
"p.p.p.p.p.p.p.p.p.p.p.p.p.p.p.p.p.p.p.p.p.p.p.p.p.p.p.p.p.p.p.p.p.p.p.p.p.p.p.p.p.p.p.p.p.p.p.p.p.p.p.p.p.p.p.p.p.p.p.p.p.p.p.p.",
"p.p.p.p.p.p.p.p.p.p.p.p.p.p.p.p.p.p.p.p.p.p.p.p.p.p.p.p B p.p.p.p.p.p.; d p.p.p.p.p.p.p.p.p.p.p.p.p.p.p.p.p.p.p.p.p.p.p.p.p.p.p.",
"p.p.p.p.p.p.p.p.p.p.p.p.p.p.p.p.p.p.p.p.p.p.p.p.p.p.; d p.p.` $.$.p.p.p.Z P p.p.p.p.p.p.p.p.p.p.p.p.p.p.p.p.p.p.p.p.p.p.p.p.p.p.",
"p.p.p.p.p.p.p.p.p.p.p.p.p.p.p.p.p.p.p.p.p.p.p.p.p.p.u B p.( ' #.$.$.p.p.p H p.p.p.p.p.p.p.p.p.p.p.p.p.p.p.p.p.p.p.p.p.p.p.p.p.p.",
"p.p.p.p.p.p.p.p.p.p.p.p.p.p.p.p.p.p.p.p.p.p.p.p.p.* d C ~ ) ) p.p.p.p.p.t B L p.p.p.p.p.p.p.p.p.p.p.p.p.p.p.p.p.p.p.p.p.p.p.p.p.",
"p.p.p.p.p.p.p.p.p.p.p.p.p.p.p.p.p.p.p.p.p.p.p.p.p.; V C #.` p.p.p.p.p.p.y B J p.p.p.p.p.p.p.p.p.p.p.p.p.p.p.p.p.p.p.p.p.p.p.p.p.",
"p.p.p.p.p.p.p.p.p.p.p.p.p.p.p.p.p.p.p.p.p.p.p.p.p.; V C _ #.p.p.p.p.p.p.y B J p.p.p.p.p.p.p.p.p.p.p.p.p.p.p.p.p.p.p.p.p.p.p.p.p.",
"p.p.p.p.p.p.p.p.p.p.p.p.p.p.p.p.p.p.p.p.p.p.p.p.p.* V V Q ' p.p.p.p.p.p.p V J p.p.p.p.p.p.p.p.p.p.p.p.p.p.p.p.p.p.p.p.p.p.p.p.p.",
"p.p.p.p.p.p.p.p.p.p.p.p.p.p.p.p.p.p.p.p.p.p.p.p.p.% d V M ` _ p.p.p.p.b d V J p.p.p.p.p.p.p.p.p.p.p.p.p.p.p.p.p.p.p.p.p.p.p.p.p.",
"p.p.p.p.p.p.p.p.p.p.p.p.p.p.p.p.p.p.p.p.p.p.p.p.p.o ; d V p.' $.$.p.p.p V A L p.p.p.p.p.p.p.p.p.p.p.p.p.p.p.p.p.p.p.p.p.p.p.p.p.",
"p.p.p.p.p.p.p.p.p.p.p.p.p.p.p.p.p.p.p.p.p.p.p.p.p.p.o ; d Z p.p.p.p.u B V H p.p.p.p.p.p.p.p.p.p.p.p.p.p.p.p.p.p.p.p.p.p.p.p.p.p.",
"p.p.p.p.p.p.p.p.p.p.p.p.p.p.p.p.p.p.p.p.p.p.p.p.p.p.p.* t d B u u d B B H p.p.p.p.p.p.p.p.p.p.p.p.p.p.p.p.p.p.p.p.p.p.p.p.p.p.p.",
"p.p.p.p.p.p.p.p.p.p.p.p.p.p.p.p.p.p.p.p.p.p.p.p.p.p.p.p.* y d V V Z C J p.p.p.p.p.p.p.p.p.p.p.p.p.p.p.p.p.p.p.p.p.p.p.p.p.p.p.p.",
"p.p.p.p.p.p.p.p.p.p.p.p.p.p.p.p.p.p.p.p.p.p.p.p.p.p.p.p.p.o ; d B Z L p.p.p.p.p.p.p.p.p.p.p.p.p.p.p.p.p.p.p.p.p.p.p.p.p.p.p.p.p.",
"p.p.p.p.p.p.p.p.p.p.p.p.p.p.p.p.p.p.p.p.p.p.p.p.p.p.p.  p.p.% 2 d V p.p.t p.p.p.p.p.p.p.p.p.p.p.p.p.p.p.p.p.p.p.p.p.p.p.p.p.p.p.",
"p.p.p.p.p.p.p.p.p.p.p.p.p.p.p.p.p.p.p.p.p.p.p.p.p.p.p.. % - - ; u f B d u p.p.p.p.p.p.p.p.p.p.p.p.p.p.p.p.p.p.p.p.p.p.p.p.p.p.p.",
"p.p.p.p.p.p.p.p.p.p.p.p.p.p.p.p.p.p.p.p.p.p.p.p.p.p.o ; - & * * & u ; p V u p.p.p.p.) p.p.p.p.p.p.p.p.p.p.p.p.p.p.p.p.p.p.p.p.p.",
"p.p.p.p.p.p.p.p.p.p.p.p.p.p.p.p.p.p.p.p.p.( p.p.p.p.o ; % & 2 q v u ; ; V u p.p.p.p.+.p.p.p.p.p.p.p.p.p.p.p.p.p.p.p.p.p.p.p.p.p.",
"p.p.p.p.p.p.p.p.p.p.p.p.p.p.p.p.p.p.p.p.) +.p.p.p.p.% & % * q *.q.D t ; s s p.p.p.p.p.p.p.p.p.p.p.p.p.p.p.p.p.p.p.p.p.p.p.p.p.p.",
"p.p.p.p.p.p.p.p.p.p.p.p.p.p.p.p.p.p.p.p.$.$.p.p.p.p.& o & ; E 7.i.<.s ; u s p.p.p.p.p.p.p.p.p.p.p.p.p.p.p.p.p.p.p.p.p.p.p.p.p.p.",
"p.p.p.p.p.p.p.p.p.p.p.p.p.p.p.p.p.p.) p.p.p.p.p.p.* % % * 9 ` 8.i.w.S 2 ; 2 p p.p.p.p.p.p.p.p.p.p.p.p.p.p.p.p.p.p.p.p.p.p.p.p.p.",
"p.p.p.p.p.p.p.p.p.p.p.p.p.p.p.p.p.p.` p.p.p.p.p.p.* % & ; | ' 4.r.8.>.u ; ; u p.p.p.p.p.p.p.p.p.p.p.p.p.p.p.p.p.p.p.p.p.p.p.p.p.",
"p.p.p.p.p.p.p.p.p.p.p.p.p.p.p.p.p.p.p.p.p.p.p.p.p.. . % ; r ) ( =.&.{ d ; * ; - p.p.p.p.p.p.p.p.p.p.p.p.p.p.p.p.p.p.p.p.p.p.p.p.",
"p.p.p.p.p.p.p.p.p.p.p.p.p.p.p.p.p.p.p.p.p.p.p.p.% . % % % : Q ) $.o.x 2 * ; d u p.p.p.p.p.p.p.p.p.p.p.p.p.p.p.p.p.p.p.p.p.p.p.p.",
"p.p.p.p.p.p.p.p.p.p.p.p.p.p.p.p.p.p.p.p.p.p.p.p.& * % % & & 6 ) $.r ; ; 2 x m p p.p.p.p.p.p.p.p.p.p.p.p.p.p.p.p.p.p.p.p.p.p.p.p.",
"p.p.p.p.p.p.p.p.p.p.p.p.p.p.p.p.p.p.p.p.p.p.p.p.& & * * % & 1 W | 9 ; 2 d [ / z p.p.p.p.p.p.p.p.p.p.p.p.p.p.p.p.p.p.p.p.p.p.p.p.",
"p.p.p.p.p.p.p.p.p.p.p.p.p.p.p.p.p.p.p.p.p.p.p.5 % * % % % % % < 1 ; ; B C ( +.c 1.p.p.p.p.p.p.p.p.p.p.p.p.p.p.p.p.p.p.p.p.p.p.p.",
"p.p.p.p.p.p.p.p.p.p.p.p.p.p.p.p.p.p.p.p.p.p.p.E 5 T * : : * * * ; ; s V C X.[ d F t.p.p.p.p.p.p.p.p.p.p.p.p.p.p.p.p.p.p.p.p.p.p.",
"p.p.p.p.p.p.p.p.p.p.p.p.p.p.p.p.p.p.p.p.p.$.' 3 7 ` 0 8 > % * * - s d V C C d < l t.y.p.p.p.p.p.p.p.p.p.p.p.p.p.p.p.p.p.p.p.p.p.",
"p.p.p.p.p.p.p.p.p.p.p.p.p.p.p.p.p.p.p.p.p.$.' @ & 8 : * % * % * * d V V f d d t k 0.i.p.p.p.p.p.p.p.p.p.p.p.p.p.p.p.p.p.p.p.p.p.",
"p.p.p.p.p.p.p.p.p.p.p.p.p.p.p.p.p.p.p.p.' &.' @ * % & & & & % * * d B d f B d t ; ;.y.i.p.p.p.p.p.p.p.p.p.p.p.p.p.p.p.p.p.p.p.p.",
"p.p.p.p.p.p.p.p.p.p.p.p.p.p.p.p.p.p.p.) ` &.I % % * * & & & ; * * y V B B B u ; ; i 6.e.5.p.p.p.p.p.p.p.p.p.p.p.p.p.p.p.p.p.p.p.",
"p.p.p.p.p.p.p.p.p.p.p.p.p.p.p.p.p.p.p.p.( ( 4 % & * % * - * ; - ; u f f f B u ; - ; 3.-.$.p.p.p.p.p.p.p.p.p.p.p.p.p.p.p.p.p.p.p.",
"p.p.p.p.p.p.p.p.p.p.p.p.p.p.p.p.p.p.p.p.) I X % % * * * - % ; n ,.C f d B < y ; y - E $.$.p.p.p.p.p.p.p.p.p.p.p.p.p.p.p.p.p.p.p.",
"p.p.p.p.p.p.p.p.p.p.p.p.p.p.p.p.p.p.p.p.) I % % % % * * * % q @.r.2.d V p ; ; t < ; 9 +.p.p.p.p.p.p.p.p.p.p.p.p.p.p.p.p.p.p.p.p.",
"p.p.p.p.p.p.p.p.p.p.p.p.p.p.p.p.p.p.p.p.^ 3 % & * % * % & : E =.r.t.G V p ; < t t t t ] p.p.p.p.p.p.p.p.p.p.p.p.p.p.p.p.p.p.p.p.",
"p.p.p.p.p.p.p.p.p.p.p.p.p.p.p.p.p.p.p.p.3 % % & * * % * & , _ &.9.9.:.B p t ; t t t t j p.p.p.p.p.p.p.p.p.p.p.p.p.p.p.p.p.p.p.p.",
"p.p.p.p.p.p.p.p.p.p.p.p.p.p.p.p.p.p.p.p.& & % * * * * % & * R ) #.%.N s y t < ; t t t = p.p.p.p.p.p.p.p.p.p.p.p.p.p.p.p.p.p.p.p.",
"p.p.p.p.p.p.p.p.p.p.p.p.p.p.p.p.p.p.p.p.- % * * & * & * % - q Q ` X.V 2 ; ; < ; < t t ; p.p.p.p.p.p.p.p.p.p.p.p.p.p.p.p.p.p.p.p.",
"p.p.p.p.p.p.p.p.p.p.p.p.p.p.p.p.p.p.p.; - * * * * * & % * & - w W 9 B u 2 2 ; ; y y y < ; p.p.p.p.p.p.p.p.p.p.p.p.p.p.p.p.p.p.p.",
"p.p.p.p.p.p.p.p.p.p.p.p.p.p.p.p.p.p.< ; * ; * % - * & * - - - - x 2 ; 2 ; ; u t ; t y t - ; p.p.p.p.p.p.p.p.p.p.p.p.p.p.p.p.p.p.",
"p.p.p.p.p.p.p.p.p.p.p.p.p.p.p.p.p.; - * - * * - - & & * * - ; - 2 - 2 s p < y ; ; ; ; - & = ; p.p.p.p.p.p.p.p.p.p.p.p.p.p.p.p.p.",
"p.p.p.p.p.p.p.p.p.p.p.p.p.p.p.p.; ; & * ; * * * * & * & = = ; - a y a t u y 1 t ; ; = = # $ = = p.p.p.p.p.p.p.p.p.p.p.p.p.p.p.p.",
"p.p.p.p.p.p.p.p.p.p.p.p.p.p.p.u 2 * & * * * * ; * * ; % # = ; ; Z y y t y t y t y t , = = = $ = ; p.p.p.p.p.p.p.p.p.p.p.p.p.p.p.",
"p.p.p.p.p.p.p.p.p.p.p.p.p.p.; y * & % & % * & & * * & % & ; ; ; x t ; t u y t y ; y = = # $ = # = ; p.p.p.p.p.p.p.p.p.p.p.p.p.p.",
"p.p.p.p.p.p.p.p.p.p.p.p.p.t ; - & % * ; * % & & % % * & & - - - d t t t u a t t ; ; = = $ = $ $ # & ; p.p.p.p.p.p.p.p.p.p.p.p.p.",
"p.p.p.p.p.p.p.p.p.p.p.p.; ; = # & & * ; * % & & * % * % & - # . . . t t t a y u y t = = $ $ $ # # # # t p.p.p.p.p.p.p.p.p.p.p.p.",
"p.p.p.p.p.p.p.p.p.p.p.t ; & # # $ * * ; % * : % * % * % $ - & # . # = t t y a u y ; # # = # $ = # = $ = t p.p.p.p.p.p.p.p.p.p.p.",
"p.p.p.p.p.p.p.p.p.p.t t t # # = $ ; ; * * % - * % % & * - = $ & . . # y t t t t = = $ = = $ # # # $ # = = t p.p.p.p.p.p.p.p.p.p.",
"p.p.p.p.p.p.p.p.p.p.t $ $ # # $ & ; * * % * * * * * * & - = $ X . o # y t 1 y t t = $ # # $ = # = $ # # # t p.p.p.p.p.p.p.p.p.p.",
"p.p.p.p.p.p.p.p.p.p.; & # = $ # = - & * & % * * - # # # t ; # . . . # y t y y y = $ $ # # = $ $ $ = # & ; t p.p.p.p.p.p.p.p.p.p.",
"p.p.p.p.p.p.p.p.p.p.p.p.p.p.p.# - * & * & & % * - = = # ; # # . . . O y t t y - t # # # # $ $ t # p.p.p.p.p.p.p.p.p.p.p.p.p.p.p.",
"p.p.p.p.p.p.p.p.p.p.p.p.p.p.p.p.p.p.p.p.& & * % & & # t - # X . . . . - ; y y , # # # = p.p.p.p.p.p.p.p.p.p.p.p.p.p.p.p.p.p.p.p.",
"p.p.p.p.p.p.p.p.p.p.p.p.p.p.p.p.p.p.p.p.p.p.p.& & & # t t # . . . . . O y y y = = p.p.p.p.p.p.p.p.p.p.p.p.p.p.p.p.p.p.p.p.p.p.p.",
"p.p.p.p.p.p.p.p.p.p.p.p.p.p.p.p.p.p.p.p.p.p.p.p.p.p.p.p.; # X . . . . ; p.p.p.p.p.p.p.p.p.p.p.p.p.p.p.p.p.p.p.p.p.p.p.p.p.p.p.p.",
"p.p.p.p.p.p.p.p.p.p.p.p.p.p.p.p.p.p.p.p.p.p.p.p.p.p.p.p.p.& # . . . . p.p.p.p.p.p.p.p.p.p.p.p.p.p.p.p.p.p.p.p.p.p.p.p.p.p.p.p.p.",
"p.p.p.p.p.p.p.p.p.p.p.p.p.p.p.p.p.p.p.p.p.p.p.p.p.p.p.p.p.# # . . . . p.p.p.p.p.p.p.p.p.p.p.p.p.p.p.p.p.p.p.p.p.p.p.p.p.p.p.p.p.",
"p.p.p.p.p.p.p.p.p.p.p.p.p.p.p.p.p.p.p.p.p.p.p.p.p.p.p.p.p.p.p.p.p.p.p.p.p.p.p.p.p.p.p.p.p.p.p.p.p.p.p.p.p.p.p.p.p.p.p.p.p.p.p.p."
};
