/* XPM */
static char *result[] = {
/* columns rows colors chars-per-pixel */
"64 64 135 2 ",
"   c #14131A",
".  c #1E1825",
"X  c #1F1D29",
"o  c #211D2C",
"O  c #291F2E",
"+  c #3E1A27",
"@  c #391C2C",
"#  c #221F31",
"$  c #3B1D35",
"%  c #1F202E",
"&  c #1F2033",
"*  c #22212D",
"=  c #242233",
"-  c #292636",
";  c #272438",
":  c #2A2639",
">  c #2D2B3D",
",  c #332334",
"<  c #362739",
"1  c #3F243D",
"2  c #322C3D",
"3  c #3B2A3D",
"4  c #30303F",
"5  c #441A27",
"6  c #441B2B",
"7  c #631F30",
"8  c #641438",
"9  c #63183E",
"0  c #4C2332",
"q  c #4B293E",
"w  c #54293D",
"e  c #622437",
"r  c #752035",
"t  c #7C263D",
"y  c #2F2D40",
"u  c #312E41",
"i  c #333243",
"p  c #3D3243",
"a  c #363748",
"s  c #383749",
"d  c #373949",
"f  c #3A3B4C",
"g  c #3D3F51",
"h  c #442B40",
"j  c #4B2E41",
"k  c #572A40",
"l  c #403343",
"z  c #443648",
"x  c #453B4C",
"c  c #593C49",
"v  c #423F51",
"b  c #653143",
"n  c #7E3950",
"m  c #3E4152",
"M  c #424455",
"N  c #4E4654",
"B  c #44465A",
"V  c #46495B",
"C  c #564857",
"Z  c #5F4B5A",
"A  c #6C4956",
"S  c #6E515E",
"D  c #4B4E63",
"F  c #4E5267",
"G  c #4F5268",
"H  c #51556B",
"J  c #585C75",
"K  c #921D2F",
"L  c #8C1D32",
"P  c #851939",
"I  c #9D1E34",
"U  c #9D113F",
"Y  c #97193D",
"T  c #9B1A3A",
"R  c #A2123E",
"E  c #AC153D",
"W  c #B7173B",
"Q  c #B5183B",
"!  c #B91B3B",
"~  c #8F253C",
"^  c #9E223E",
"/  c #A6243C",
"(  c #AC293F",
")  c #B02138",
"_  c #C01F36",
"`  c #C71E39",
"'  c #C91E39",
"]  c #C02037",
"[  c #C5213C",
"{  c #CE2038",
"}  c #D32039",
"|  c #E5213D",
" . c #840F40",
".. c #8A0B41",
"X. c #910C40",
"o. c #9B2641",
"O. c #923044",
"+. c #96354E",
"@. c #A02642",
"#. c #AE2941",
"$. c #C02542",
"%. c #C82745",
"&. c #DD2544",
"*. c #EC2242",
"=. c #E72E4C",
"-. c #FE2144",
";. c #F62749",
":. c #FC2A4A",
">. c #E83651",
",. c #FB3651",
"<. c #FF3955",
"1. c #83545F",
"2. c #AF465A",
"3. c #A84D5F",
"4. c #AF636A",
"5. c #A76D75",
"6. c #B06971",
"7. c #BE747A",
"8. c #C9455A",
"9. c #EA4A5B",
"0. c #FF465D",
"q. c #D27B7F",
"w. c #FF6271",
"e. c #FF6976",
"r. c #FF747D",
"t. c #DA7D81",
"y. c #EB7D83",
"u. c #EB898A",
"i. c #FF8185",
"p. c #FF8689",
"a. c #F2898A",
"s. c #FE8D8D",
"d. c #FF908F",
"f. c #FF9191",
"g. c None",
/* pixels */
"g.g.g.g.g.g.g.g.g.g.g.g.g.g.g.g.g.g.g.g.g.g.g.g.g.g.g.g.g.g.g.g.g.g.g.g.g.g.g.g.g.g.g.g.g.g.g.g.g.g.g.g.g.g.g.g.g.g.g.g.g.g.g.g.",
"g.g.g.g.g.g.g.g.g.g.g.g.g.g.g.g.g.g.g.g.g.g.g.g.g.g.g.g.g.g.g.g.g.g.g.g.g.g.g.g.g.g.g.g.g.g.g.g.g.g.g.g.g.g.g.g.g.g.g.g.g.g.g.g.",
"g.g.g.g.g.g.g.g.g.g.g.g.g.g.g.g.g.g.g.g.g.g.g.g.g.g.g.g.g.g.g.g.g.g.g.g.g.g.g.g.g.g.g.g.g.g.g.g.g.g.g.g.g.g.g.g.g.g.g.g.g.g.g.g.",
"g.g.g.g.g.g.g.g.g.g.g.g.g.g.g.g.g.g.g.g.g.g.g.g.g.g.g.g.g.g.g.g.g.g.g.g.g.g.g.g.g.g.g.g.g.g.g.g.g.g.g.g.g.g.g.g.g.g.g.g.g.g.g.g.",
"g.g.g.g.g.g.g.g.g.g.g.g.g.g.g.g.g.g.g.g.g.g.g.g.g.g.g.g.g.g.g.g.g.g.g.g.g.g.g.g.g.g.g.g.g.g.g.g.g.g.g.g.g.g.g.g.g.g.g.g.g.g.g.g.",
"g.g.g.g.g.g.g.g.g.g.g.g.g.g.g.g.g.g.g.g.g.g.g.g.g.g.g.g.g.g.g.g.g.g.g.g.g.g.g.g.g.g.g.g.g.g.g.g.g.g.g.g.g.g.g.g.g.g.g.g.g.g.g.g.",
"g.g.g.g.g.g.g.g.g.g.g.g.g.g.g.g.g.g.g.g.g.g.g.g.g.g.g.g.g.g.g.g.g.g.g.g.g.g.g.g.g.g.g.g.g.g.g.g.g.g.g.g.g.g.g.g.g.g.g.g.g.g.g.g.",
"g.g.g.g.g.g.g.g.g.g.g.g.g.g.g.g.g.g.g.g.g.g.g.g.g.g.g.a M g.g.g.g.g.g.> f g.g.g.g.g.g.g.g.g.g.g.g.g.g.g.g.g.g.g.g.g.g.g.g.g.g.g.",
"g.g.g.g.g.g.g.g.g.g.g.g.g.g.g.g.g.g.g.g.g.g.g.g.g.g.y f g.g.Q ! ` } g.g.B J g.g.g.g.g.g.g.g.g.g.g.g.g.g.g.g.g.g.g.g.g.g.g.g.g.g.",
"g.g.g.g.g.g.g.g.g.g.g.g.g.g.g.g.g.g.g.g.g.g.g.g.g.g.u g g...U g.g.g.g.g.i D g.g.g.g.g.g.g.g.g.g.g.g.g.g.g.g.g.g.g.g.g.g.g.g.g.g.",
"g.g.g.g.g.g.g.g.g.g.g.g.g.g.g.g.g.g.g.g.g.g.g.g.g.: f N Q R g.g.g.g.g.g.y M H g.g.g.g.g.g.g.g.g.g.g.g.g.g.g.g.g.g.g.g.g.g.g.g.g.",
"g.g.g.g.g.g.g.g.g.g.g.g.g.g.g.g.g.g.g.g.g.g.g.g.g.> M M R ! g.g.g.g.g.g.u m F g.g.g.g.g.g.g.g.g.g.g.g.g.g.g.g.g.g.g.g.g.g.g.g.g.",
"g.g.g.g.g.g.g.g.g.g.g.g.g.g.g.g.g.g.g.g.g.g.g.g.g.> B M X.Q g.g.g.g.g.g.u m G g.g.g.g.g.g.g.g.g.g.g.g.g.g.g.g.g.g.g.g.g.g.g.g.g.",
"g.g.g.g.g.g.g.g.g.g.g.g.g.g.g.g.g.g.g.g.g.g.g.g.g.- M M g.E g.g.g.g.g.g.a M G g.g.g.g.g.g.g.g.g.g.g.g.g.g.g.g.g.g.g.g.g.g.g.g.g.",
"g.g.g.g.g.g.g.g.g.g.g.g.g.g.g.g.g.g.g.g.g.g.g.g.g.* f M g.g.R { g.g.g.g.f B F g.g.g.g.g.g.g.g.g.g.g.g.g.g.g.g.g.g.g.g.g.g.g.g.g.",
"g.g.g.g.g.g.g.g.g.g.g.g.g.g.g.g.g.g.g.g.g.g.g.g.g.* : f B g.g.g.g.g.g.a m V H g.g.g.g.g.g.g.g.g.g.g.g.g.g.g.g.g.g.g.g.g.g.g.g.g.",
"g.g.g.g.g.g.g.g.g.g.g.g.g.g.g.g.g.g.g.g.g.g.g.g.g.g.o > f B g.g.g.g.i m B F g.g.g.g.g.g.g.g.g.g.g.g.g.g.g.g.g.g.g.g.g.g.g.g.g.g.",
"g.g.g.g.g.g.g.g.g.g.g.g.g.g.g.g.g.g.g.g.g.g.g.g.g.g.g.- u f m i i f m B D g.g.g.g.g.g.g.g.g.g.g.g.g.g.g.g.g.g.g.g.g.g.g.g.g.g.g.",
"g.g.g.g.g.g.g.g.g.g.g.g.g.g.g.g.g.g.g.g.g.g.g.g.g.g.g.g.- 2 f M M B B D g.g.g.g.g.g.g.g.g.g.g.g.g.g.g.g.g.g.g.g.g.g.g.g.g.g.g.g.",
"g.g.g.g.g.g.g.g.g.g.g.g.g.g.g.g.g.g.g.g.g.g.g.g.g.g.g.g.g.o > f M B H g.g.g.g.g.g.g.g.g.g.g.g.g.g.g.g.g.g.g.g.g.g.g.g.g.g.g.g.g.",
"g.g.g.g.g.g.g.g.g.g.g.g.g.g.g.g.g.g.g.g.g.g.g.g.g.g.g.  g.g.* > f B g.g.> g.g.g.g.g.g.g.g.g.g.g.g.g.g.g.g.g.g.g.g.g.g.g.g.g.g.g.",
"g.g.g.g.g.g.g.g.g.g.g.g.g.g.g.g.g.g.g.g.g...g.g.g.g.g.. * : : 4 > m f f i g.g.g.g.g.U g.g.g.g.g.g.g.g.g.g.g.g.g.g.g.g.g.g.g.g.g.",
"g.g.g.g.g.g.g.g.g.g.g.g.g.g.g.g.g.g.g.g.X.E g.g.g.g.* > > = = - - i > f M i g.g.g.g.E g.g.g.g.g.g.g.g.g.g.g.g.g.g.g.g.g.g.g.g.g.",
"g.g.g.g.g.g.g.g.g.g.g.g.g.g.g.g.g.g.g.g.` { g.g.g.g.o : = * > w c 4 > > M i g.g.g.g.g.g.g.g.g.g.g.g.g.g.g.g.g.g.g.g.g.g.g.g.g.g.",
"g.g.g.g.g.g.g.g.g.g.g.g.g.g.g.g.g.g.g.g.g.g.g.g.g.g.* = % - w >.y.Z y > d d g.g.g.g.g.g.g.g.g.g.g.g.g.g.g.g.g.g.g.g.g.g.g.g.g.g.",
"g.g.g.g.g.g.g.g.g.g.g.g.g.g.g.g.g.g.g.g.g.g.g.g.g.g.= o - : ^ e.f.5.d > i d g.g.g.g.g.g.g.g.g.g.g.g.g.g.g.g.g.g.g.g.g.g.g.g.g.g.",
"g.g.g.g.g.g.g.g.g.g.g.g.g.g.g.g.g.g.R g.g.g.g.g.g.- * * - q | e.f.u.C y : 4 a g.g.g.g.g.g.g.g.g.g.g.g.g.g.g.g.g.g.g.g.g.g.g.g.g.",
"g.g.g.g.g.g.g.g.g.g.g.g.g.g.g.g.g.g.g.g.g.g.g.g.g.= * = > @.-.9.p.e.3.i > > i g.g.g.g.g.g.g.g.g.g.g.g.g.g.g.g.g.g.g.g.g.g.g.g.g.",
"g.g.g.g.g.g.g.g.g.g.g.g.g.g.g.g.g.g.g.g.g.g.g.g.g.. o * : t } } ,.:.+.m > < 1 : g.g.g.g.g.g.g.g.g.g.g.g.g.g.g.g.g.g.g.g.g.g.g.g.",
"g.g.g.g.g.g.g.g.g.g.g.g.g.g.g.g.g.g.g.g.g.g.g.g.* X * * * , ) } | &.f i : 9  .1 g.g.g.g.g.g.g.g.g.g.g.g.g.g.g.g.g.g.g.g.g.g.g.g.",
"g.g.g.g.g.g.g.g.g.g.g.g.g.g.g.g.g.g.g.g.g.g.g.g.= * * * - - 7 } -.~ > > 2 Y ! j g.g.g.g.g.g.g.g.g.g.g.g.g.g.g.g.g.g.g.g.g.g.g.g.",
"g.g.g.g.g.g.g.g.g.g.g.g.g.g.g.g.g.g.g.g.g.g.g.g.- - - - * * 3 / #.q > > x ( O.f g.g.g.g.g.g.g.g.g.g.g.g.g.g.g.g.g.g.g.g.g.g.g.g.",
"g.g.g.g.g.g.g.g.g.g.g.g.g.g.g.g.g.g.g.g.g.g.g.r 8 L , - * % * 4 3 > > m M x M f 6.g.g.g.g.g.g.g.g.g.g.g.g.g.g.g.g.g.g.g.g.g.g.g.",
"g.g.g.g.g.g.g.g.g.g.g.g.g.g.g.g.g.g.g.g.g.g.g./ @ ^ 0 $ , - - - > > d B M m f d A a.g.g.g.g.g.g.g.g.g.g.g.g.g.g.g.g.g.g.g.g.g.g.",
"g.g.g.g.g.g.g.g.g.g.g.g.g.g.g.g.g.g.g.g.g.-.| 5 X * * - * - - - : d f m B B d 2 z a.s.g.g.g.g.g.g.g.g.g.g.g.g.g.g.g.g.g.g.g.g.g.",
"g.g.g.g.g.g.g.g.g.g.g.g.g.g.g.g.g.g.g.g.g.-.| @ = = - - - * = - : f B m f f f 2 l t.f.g.g.g.g.g.g.g.g.g.g.g.g.g.g.g.g.g.g.g.g.g.",
"g.g.g.g.g.g.g.g.g.g.g.g.g.g.g.g.g.g.g.g.-.-.| @ = = = = * = = - : d m f m m d 2 > 1.s.f.g.g.g.g.g.g.g.g.g.g.g.g.g.g.g.g.g.g.g.g.",
"g.g.g.g.g.g.g.g.g.g.g.g.g.g.g.g.g.g.g.} | -.~ X = = - - - = - - = 4 M B M m i > > p q.i.0.g.g.g.g.g.g.g.g.g.g.g.g.g.g.g.g.g.g.g.",
"g.g.g.g.g.g.g.g.g.g.g.g.g.g.g.g.g.g.g.g.} [ 6 * * - * - - - 4 4 2 i M f f m i : : > 8.<.-.g.g.g.g.g.g.g.g.g.g.g.g.g.g.g.g.g.g.g.",
"g.g.g.g.g.g.g.g.g.g.g.g.g.g.g.g.g.g.g.g.{ I . - * - - - - = : e 4.N f f M 4 i > u : ^ -.-.g.g.g.g.g.g.g.g.g.g.g.g.g.g.g.g.g.g.g.",
"g.g.g.g.g.g.g.g.g.g.g.g.g.g.g.g.g.g.g.g.} K o = - * - - = % w =.p.7.f M a : 2 u y > q *.g.g.g.g.g.g.g.g.g.g.g.g.g.g.g.g.g.g.g.g.",
"g.g.g.g.g.g.g.g.g.g.g.g.g.g.g.g.g.g.g.g.] 5 * * * = = - - - / ,.p.a.S M a > y > > u y o.g.g.g.g.g.g.g.g.g.g.g.g.g.g.g.g.g.g.g.g.",
"g.g.g.g.g.g.g.g.g.g.g.g.g.g.g.g.g.g.g.g.5 - = = - - * - * 2 } :.r.r.2.m a > u > y y y k g.g.g.g.g.g.g.g.g.g.g.g.g.g.g.g.g.g.g.g.",
"g.g.g.g.g.g.g.g.g.g.g.g.g.g.g.g.g.g.g.g.= * * - - - = = = > ~ } *.;.n d i u > > y y y : g.g.g.g.g.g.g.g.g.g.g.g.g.g.g.g.g.g.g.g.",
"g.g.g.g.g.g.g.g.g.g.g.g.g.g.g.g.g.g.g.g.- = = = = = - * = - w ] | %.M 4 4 4 u > > y y > g.g.g.g.g.g.g.g.g.g.g.g.g.g.g.g.g.g.g.g.",
"g.g.g.g.g.g.g.g.g.g.g.g.g.g.g.g.g.g.g.4 - = : - - - * - = - : e #.q m i 4 > > : y u u > y g.g.g.g.g.g.g.g.g.g.g.g.g.g.g.g.g.g.g.",
"g.g.g.g.g.g.g.g.g.g.g.g.g.g.g.g.g.g.4 : - 2 - = - - - = > - : : x 4 > 4 > 2 i > > y y y : > g.g.g.g.g.g.g.g.g.g.g.g.g.g.g.g.g.g.",
"g.g.g.g.g.g.g.g.g.g.g.g.g.g.g.g.g.2 > * > - - : > * = - ; : : : 4 > 4 i a > i > > > > : # ; > g.g.g.g.g.g.g.g.g.g.g.g.g.g.g.g.g.",
"g.g.g.g.g.g.g.g.g.g.g.g.g.g.g.g.> > = - 4 - - - - - - * & : > : s i s u i u u y y > > ; # & ; ; g.g.g.g.g.g.g.g.g.g.g.g.g.g.g.g.",
"g.g.g.g.g.g.g.g.g.g.g.g.g.g.g.y 4 - = = - : - > = - > = = ; > > v y u y u u u y y y > # & ; # ; > g.g.g.g.g.g.g.g.g.g.g.g.g.g.g.",
"g.g.g.g.g.g.g.g.g.g.g.g.g.g.y > : = * = * - * - * - * * = > : > B y > y i u > > > y > ; & & ; & ; : g.g.g.g.g.g.g.g.g.g.g.g.g.g.",
"g.g.g.g.g.g.g.g.g.g.g.g.g.y y : = * - > - * - * - = - = - : : ; s y > y i f y y > > ; ; & ; # & # ; > g.g.g.g.g.g.g.g.g.g.g.g.g.",
"g.g.g.g.g.g.g.g.g.g.g.g.> > ; & = - - > - * - * * - - = & - # X . # y y y f y i u y ; # # ; & ; = # # y g.g.g.g.g.g.g.g.g.g.g.g.",
"g.g.g.g.g.g.g.g.g.g.g.y > = # # = = : : * - - - = * - = & : ; X . . O y 1 u f u u > ; # & ; & # ; # & y y g.g.g.g.g.g.g.g.g.g.g.",
"g.g.g.g.g.g.g.g.g.g.y ; y # # # = - 4 - - * - * = = = - : ; & = o . # u y y y y y ; # # & # & & & # ; # ; y g.g.g.g.g.g.g.g.g.g.",
"g.g.g.g.g.g.g.g.g.g.y & & # # ; = > : - * - - - = - = * : : & % . o # u y u y y > & # ; ; # # ; # # & # # y g.g.g.g.g.g.g.g.g.g.",
"g.g.g.g.g.g.g.g.g.g.y # # ; & # : - - - = * - : ; ; ; # > ; # . . . O u u u u y ; & # & # # # # # = # = > y g.g.g.g.g.g.g.g.g.g.",
"g.g.g.g.g.g.g.g.g.g.g.g.g.g.g.# : - = - = = * - ; ; # # > ; # . . . # u y y y y ; ; # ; y # # ; ; g.g.g.g.g.g.g.g.g.g.g.g.g.g.g.",
"g.g.g.g.g.g.g.g.g.g.g.g.g.g.g.g.g.g.g.g.= = = = * = # y > & . . . . . O y y y : # # # = g.g.g.g.g.g.g.g.g.g.g.g.g.g.g.g.g.g.g.g.",
"g.g.g.g.g.g.g.g.g.g.g.g.g.g.g.g.g.g.g.g.g.g.g.= = * # > y # . . . . . O y y y : ; g.g.g.g.g.g.g.g.g.g.g.g.g.g.g.g.g.g.g.g.g.g.g.",
"g.g.g.g.g.g.g.g.g.g.g.g.g.g.g.g.g.g.g.g.g.g.g.g.g.g.g.g.> # # .   o o : g.g.g.g.g.g.g.g.g.g.g.g.g.g.g.g.g.g.g.g.g.g.g.g.g.g.g.g.",
"g.g.g.g.g.g.g.g.g.g.g.g.g.g.g.g.g.g.g.g.g.g.g.g.g.g.g.g.g.= # . o . . g.g.g.g.g.g.g.g.g.g.g.g.g.g.g.g.g.g.g.g.g.g.g.g.g.g.g.g.g.",
"g.g.g.g.g.g.g.g.g.g.g.g.g.g.g.g.g.g.g.g.g.g.g.g.g.g.g.g.g.o o o o . o g.g.g.g.g.g.g.g.g.g.g.g.g.g.g.g.g.g.g.g.g.g.g.g.g.g.g.g.g.",
"g.g.g.g.g.g.g.g.g.g.g.g.g.g.g.g.g.g.g.g.g.g.g.g.g.g.g.g.g.g.g.g.g.g.g.g.g.g.g.g.g.g.g.g.g.g.g.g.g.g.g.g.g.g.g.g.g.g.g.g.g.g.g.g."
};
