/* XPM */
static char *result[] = {
/* columns rows colors chars-per-pixel */
"64 64 229 2 ",
"   c #010101",
".  c #0B0000",
"X  c #0B0B0B",
"o  c #01010A",
"O  c #130504",
"+  c #171616",
"@  c #0E0B13",
"#  c #2C0000",
"$  c #200000",
"%  c #360000",
"&  c #391D18",
"*  c #221D19",
"=  c #32221B",
"-  c #090B28",
";  c #0A1827",
":  c #0B0C39",
">  c #1D2123",
",  c #292626",
"<  c #3A3B3B",
"1  c #303132",
"2  c #430202",
"3  c #420B0B",
"4  c #580000",
"5  c #421E1E",
"6  c #50130B",
"7  c #660000",
"8  c #660505",
"9  c #7E0000",
"0  c #740000",
"q  c #6B1617",
"w  c #4D271D",
"e  c #56172F",
"r  c #413F3C",
"t  c #432C28",
"y  c #742F2A",
"u  c #67192C",
"i  c #151548",
"p  c #151558",
"a  c #091945",
"s  c #221D54",
"d  c #00294A",
"f  c #31324D",
"g  c #181868",
"h  c #1E1E7E",
"j  c #181876",
"k  c #211E7E",
"l  c #2A1B75",
"z  c #0C2E73",
"x  c #2B2967",
"c  c #2A257D",
"v  c #39326C",
"b  c #4C164D",
"n  c #563451",
"m  c #49336B",
"M  c #553C6D",
"N  c #3D5163",
"B  c #494848",
"V  c #575757",
"C  c #4F4D4F",
"Z  c #7B4948",
"A  c #635C5A",
"S  c #7F5359",
"D  c #6E4D48",
"F  c #5B5074",
"G  c #77546D",
"H  c #5F6060",
"J  c #6B6B6A",
"K  c #636565",
"L  c #737373",
"P  c #7C7D7D",
"I  c #787277",
"U  c #830000",
"Y  c #8A0402",
"T  c #86130C",
"R  c #89180E",
"E  c #851914",
"W  c #8A2219",
"Q  c #912E1E",
"!  c #963C29",
"~  c #853534",
"^  c #903028",
"/  c #D60000",
"(  c #C70000",
")  c #E30000",
"_  c #E90000",
"`  c #E00C0C",
"'  c #E11313",
"]  c #DA2323",
"[  c #9C583B",
"{  c #904D37",
"}  c #A14E36",
"|  c #A45A3D",
" . c #9C603D",
".. c #955845",
"X. c #835757",
"o. c #87524A",
"O. c #A85846",
"+. c #9B6147",
"@. c #986850",
"#. c #A36343",
"$. c #A7684C",
"%. c #A56C59",
"&. c #B67655",
"*. c #B56D55",
"=. c #876566",
"-. c #886277",
";. c #807A7A",
":. c #857878",
">. c #987574",
",. c #B1766E",
"<. c #915063",
"1. c #C37C58",
"2. c #D07163",
"3. c #E27474",
"4. c #83837F",
"5. c #BD846A",
"6. c #B98573",
"7. c #C8835A",
"8. c #C48463",
"9. c #CC8B6A",
"0. c #C98864",
"q. c #D28D6A",
"w. c #D3926F",
"e. c #DC9C7C",
"r. c #D89674",
"t. c #CB987E",
"y. c #DFA07F",
"u. c #E1A17F",
"i. c #1D1E82",
"p. c #201F81",
"a. c #1D2484",
"s. c #163494",
"d. c #212181",
"f. c #292685",
"g. c #2D2980",
"h. c #2B2B8C",
"j. c #212289",
"k. c #3C3A87",
"l. c #353495",
"z. c #3D3D9D",
"x. c #35359B",
"c. c #302C84",
"v. c #1D3EA4",
"b. c #3C3EA1",
"n. c #004987",
"m. c #004E93",
"M. c #3E4083",
"N. c #025CBA",
"B. c #1F53B3",
"V. c #3E40A1",
"C. c #2554B5",
"Z. c #0062B8",
"A. c #2C65A9",
"S. c #47459C",
"D. c #4F5590",
"F. c #71708F",
"G. c #4444A4",
"H. c #4C4CAD",
"J. c #4949A6",
"K. c #4C4DB0",
"L. c #5454B4",
"P. c #5D5DBC",
"I. c #5557BD",
"U. c #5B5BA1",
"Y. c #675EAB",
"T. c #6562B6",
"R. c #6A60AB",
"E. c #467EAB",
"W. c #005AC1",
"Q. c #016AC8",
"!. c #1363C4",
"~. c #0071D3",
"^. c #006FD0",
"/. c #5D5FC5",
"(. c #5F60C2",
"). c #6161C1",
"_. c #6B6BCB",
"`. c #7C7CCE",
"'. c #7474D3",
"]. c #7D7DDD",
"[. c #7979D3",
"{. c #9C7C9E",
"}. c #A37D92",
"|. c #8C75A9",
" X c #728CAC",
".X c #778DBA",
"XX c #2B88DA",
"oX c #468DCB",
"OX c #78ADDA",
"+X c #838483",
"@X c #8D8D8C",
"#X c #898386",
"$X c #90908E",
"%X c #929292",
"&X c #9A9A9C",
"*X c #918D92",
"=X c #AF8282",
"-X c #B58584",
";X c #A69C9F",
":X c #A9AAAA",
">X c #B4B4B3",
",X c #949FBD",
"<X c #E3A282",
"1X c #E3A98B",
"2X c #E0AB90",
"3X c #E1BBBB",
"4X c #E2BAA7",
"5X c #CCB4A6",
"6X c #9999C2",
"7X c #8484DC",
"8X c #9696D8",
"9X c #8383C9",
"0X c #A7A7D6",
"qX c #BBBBDB",
"wX c #8383E3",
"eX c #B9B9E7",
"rX c #C3BACA",
"tX c #BFC0C0",
"yX c #D7D5D7",
"uX c #CBCED0",
"iX c #E0DAD7",
"pX c #E0D0C8",
"aX c #CACAE7",
"sX c #D7D7E2",
"dX c #E1E2E3",
"fX c #E9E9E9",
"gX c #E6E6E8",
"hX c #D9E5E5",
"jX c None",
/* pixels */
"jXjXjXjXjXjXjXjXjXjXjXjXjXjXjXjXjXjXjXjXjXjXjXjXjXjXjXjXjXjXjXjXjXjXjXjXjXjXjXjXjXjXjXjXjXjXjXjXjXjXjXjXjXjXjXjXjXjXjXjXjXjXjXjX",
"jXjXjXjXjXjXjXjXjXjXjXjXjXjXjXjXjXjXjXjXjXjXjXjXjXjXjXjXjXjXjXjXjXjXjXjXjXjXjXjXjXjXjXjXjXjXjXjXjXjXjXjXjXjXjXjXjXjXjXjXjXjXjXjX",
"jXjXjXjXjXjXjXjXjXjXjXjXjXjXjXjXjXjXjXjXjXjXjXjXjXjXjXjXjXjXjXjXjXjXjXjXjXjXjXjXjXjXjXjXjXjXjXjXjXjXjXjXjXjXjXjXjXjXjXjXjXjXjXjX",
"jXjXjXjXjXjXjXjXjXjXjXjXjXjXjXjXjXjXjXjXjXjXjXjXjXjXjXjXjXjXjXjXjXjXjXjXjXjXjXjXjXjXjXjXjXjXjXjXjXjXjXjXjXjXjXjXjXjXjXjXjXjXjXjX",
"jXjXjXjXjXjXjXjXjXjXjXjXjXjXjXjXjXjXjXjXjXjXjXjXjXjXjXjXjXjXjXjXjXjXjXjXjXjXjXjXjXjXjXjXjXjXjXjXjXjXjXjXjXjXjXjXjXjXjXjXjXjXjXjX",
"jXjXjXjXjXjXjXjXjXjXjXjXjXjXjXjXjXjXjXjXjXjXjXjXjXjXjXjXjXjXjXjXjXjXjXjXjXjXjXjXjXjXjXjXjXjXjXjXjXjXjXjXjXjXjXjXjXjXjXjXjXjXjXjX",
"jXjXjXjXjXjXjXjXjXjXjXjXjXjXjXjXjXjXjXjXjXjXjXjXjXjXjXjXjXjXjXjXjXjXjXjXjXjXjXjXjXjXjXjXjXjXjXjXjXjXjXjXjXjXjXjXjXjXjXjXjXjXjXjX",
"jXjXjXjXjXjXjXjXjXjXjXjXjXjXjXjXjXjXjXjXjXjXjXjXjXjXjXjXjXjXjXjXjXjXjXjXjXjXjXjXjXjXjXjXjXjXjXjXjXjXjXjXjXjXjXjXjXjXjXjXjXjXjXjX",
"jXjXjXjXjXjXjXjXjXjXjXjXjXjXjXjXjXjXjXjXjXjXjXjXjXjXjXjXjXjXjXjXjXjXjXjXjXjXjXjXjXjXjXjXjXjXjXjXjXjXjXjXjXjXjXjXjXjXjXjXjXjXjXjX",
"jXjXjXjXjXjXjXjXjXjXjXjXjXjXjXjXjXjXjXjXjXjXjXjXjXjXjXjXjXjXjXjXjXjXjXjXjXjXjXjXjXjXjXjXjXjXjXjXjXjXjXjXjXjXjXjXjXjXjXjXjXjXjXjX",
"jXjXjXjXjXjXjXjXjXjXjXjXjXjXjXjXjXjXjXjXjXjXjXjXjXjXjXjXjXjXjXjXjXjXjXjXjXjXjXjXjXjXjXjXjXjXjXjXjXjXjXjXjXjXjXjXjXjXjXjXjXjXjXjX",
"jXjXjXjXjXjXjXjXjXjXjXjXjXjXjXjXjXjXjXjXjXjXjXjXjXjXjXjXjXjXjXjXjXjXjXjXjXjXjXjXjXjXjXjXjXjXjXjXjXjXjXjXjXjXjXjXjXjXjXjXjXjXjXjX",
"jXjXjXjXjXjXjXjXjXjXjXjXjXjXjXjXjXjXjXjXjXjXV.V.G.z.V.z.z.z.jXjXjXjXjXjXjXjXjXjXjXjXjXjXjXjXjXjXjXjXjXjXjXjXjXjXjXjXjXjXjXjXjXjX",
"jXjXjXjXjXjXjXjXjXjXjXjXjXjXjXjXjXjXjXjXjXJ.K.K.H.K.K.K.H.H.jXjXjXjXjXjXjXjXjXjXjXjXjXjXjXjXjXjXjXjXjXjXjXjXjXjXjXjXjXjXjXjXjXjX",
"jXjXjXjXjXjXjXjXjXjXjXjXjXjXjXjXjXjXjXz.z.G.I.Y.Y.T.T.).(.P.J.G.G.G.jXjXjXjXjXjXjXjXjXjXjXjXjXjXjXjXjXjXjXjXjXjXjXjXjXjXjXjXjXjX",
"jXjXjXjXjXjXjXjXjXjXjXjXjXjXjXjXjXjXz.h.d.d.h.S O.=.T.).(.(.P./.P.P.G.V.G.jXjXjXd.d.jXjXjXjXjXjXjXjXjXjXjXjXjXjXjXjXjXjXjXjXjXjX",
"jXjXjXjXjXjXjXjXjXjXjXjXjXjXjXjXjXf.h.d.h h c >.q.1.-.R./.).'.).).P.L.L.L.P.h.h i.d.jXjXjXjXjXjXjXjXjXjXjXjXjXjXjXjXjXjXjXjXjXjX",
"jXjXjXjXjXjXjXjXjXjXjXjXjXjXjXjXjXa.k d.d.i.g.6.<Xr.1.-.R.).'.'.).).).).).P.z.h.f.d.jXjXjXjXjXjXjXjXjXjXjXjXjXjXjXjXjXjXjXjXjXjX",
"jXjXjXjXjXjXjXjXjXjXjXjXjXjXjXjXjXjXjXjXd.d.g.}.<Xu.e.1.-./.).'.[.).).).).).).L.x.f.jXjXjXjXjXjXjXjXjXjXjXjXjXjXjXjXjXjXjXjXjXjX",
"jXjXjXjXjXjXjXjXjXjXjXjXjXjXjXjXjXjXjXjXjXjXc.,.<X<X<Xe.}._.[.wXwX[.).P.(.(./.T.H.d.jXjXjXjXjXjXjXjXjXjXjXjXjXjXjXjXjXjXjXjXjXjX",
"jXjXjXjXjXjXjXjXjXjXjXjXjXjXjXjXjXjXjXjXjXjXk.,.7.,.*X{.|.)._.].wX]._.(.P.).).).L.l.jXjXjXjXjXjXjXjXjXjXjXjXjXjXjXjXjXjXjXjXjXjX",
"jXjXjXjXjXjXjXjXjXjXjXjXjXjXjXjXjXjXjXjXjXjXz.G X.G T.I.I.L.L._.].].).P.(.).(.).P.G.jXjXjXjXjXjXjXjXjXjXjXjXjXjXjXjXjXjXjXjXjXjX",
"jXjXjXjXjXjXjXjXjXjXjXjXjXjXjXjXjXjXjXz.z.z.z.z.S.G.P.H.J.J.G.L._.]._.(.(.P.(.).I.G.jXjXjXjXjXjXjXjXjXjXjXjXjXjXjXjXjXjXjXjXjXjX",
"jXjXjXjXjXjXjXjXjXjXjXjXjXjXjXjXjXG.z.h.f.l.z.V.z.G.J.).8X0X`.H.K._.'._.(.T.(._.'.P.J.jXjXjXjXjXjXjXjXjXjXjXjXjXjXjXjXjXjXjXjXjX",
"jXjXjXjXjXjXjXjXjXjXjXjXjXjXjXjXl.l.h.d.h f.V.b.b.J.P.8XaXfXeX`.L.K._._.P.).L.9X0X'.K.b.jXjXjXjXjXjXjXjXjXjXjXjXjXjXjXjXjXjXjXjX",
"jXjXjXjXjXjXjXjXjXjXjXjXjXjXjXx.h.k k d.h f.x.S.z.K.7XaXuX>X>X0X`.K.L.P.).P.G.6XsX8XL.b.jXjXjXjXjXjXjXjXjXjXjXjXjXjXjXjXjXjXjXjX",
"jXjXjXjXjXjXjXjXjXjXjXjXjXjXd.d.i.i.d.h h a.f.z.z.H.].aX@XX + %XaX'.K.L.T.P.V.6XgXyXT.x.jXjXjXjXjXjXjXjXjXjXjXjXjXjXjXjXjXjXjXjX",
"jXjXjXjXjXjXjXjXjXjXjXjXjXjXd.h a.c d.d.i.h c x.G.H.7XaX+X    $XdXeX[.L.H.S.i F.fXyXU.i.jXjXjXjXjXjXjXjXjXjXjXjXjXjXjXjXjXjXjXjX",
"jXjXjXjXjXjXjXjXjXjXjXjXjXjXd.d.k h d.h d.d.d.h.l.K..XaX{.    @XfXyXeX`.G.s X L gXyXU.j jXjXjXjXjXjXjXjXjXjXjXjXjXjXjXjXjXjXjXjX",
"jXjXjXjXjXjXjXjXjXjXjXjXjXjXjXjXjXjXjXd.h d.d.h h.J.'.aX+X    @XfXdXdXeXU..   L dXyXS.j jXjXjXjXjXjXjXjXjXjXjXjXjXjXjXjXjXjXjXjX",
"jXjXjXjXjXjXjXjXjXjXjXjXjXjXjXjXjXjXjXjXd.a.k k d.h.J.qX+X  X @XfXdXiXhX%XX   L aX7Xz.j jXjXjXjXjXjXjXjXjXjXjXjXjXjXjXjXjXjXjXjX",
"jXjXjXjXjXjXjXjXjXjXjXjXjXjXjXjXjXjXjXjXd.k k a.p.p.h.`.6X$X$XuXdXdXiX>X6.V @ C %X}.F jXjXjXjXjXjXjXjXjXjXjXjXjXjXjXjXjXjXjXjXjX",
"jXjXjXjXjXjXjXjXjXjXjXjXjXjXjXjXjXjXjXc d.h h i.i.f.m |.rXfXfXdXdXdXpXt.@.C @ > D  .jXjXjXjXjXjXjXjXjXjXjXjXjXjXjXjXjXjXjXjXjXjX",
"jXjXjXjXjXjXjXjXjXjXjXjXjXjXjXjXjXjXi.i.p.k a.h i.v ..9.4XiXiXiXiXpX2X<X%.* O + & { jXjXjXjXjXjXjXjXjXjXjXjXjXjXjXjXjXjXjXjXjXjX",
"jXjXjXjXjXjXjXjXjXjXjXjXjXjXjXjXjXjXd.d.d.h h c i.v +.w.1X2X2X2X2X2X<X<Xe.5.0.%.{ T jXjXjXjXjXjXjXjXjXjXjXjXjXjXjXjXjXjXjXjXjXjX",
"jXjXjXjXjXjXjXjXjXjXjXjXjXjXjXjXjXd.h d.d.d.c i p f.M %.1.1.e.<Xu.r...y @.u.q.| W jXjXjXjXjXjXjXjXjXjXjXjXjXjXjXjXjXjXjXjXjXjXjX",
"jXjXjXjXjXjXjXjXjXjXjXjXjXjXjXjXd.k k k p.p.h : : p p n Z X.8.w.w.7.y 6 y *.} R U jXjXjXjXjXjXjXjXjXjXjXjXjXjXjXjXjXjXjXjXjXjXjX",
"jXjXjXjXjXjXjXjXjXjXjXjXjXjXjXjXh a.a.a.j.j.c c s O @ s l m o.O...[ { [ { Y Y jXjXjXjXjXjXjXjXjXjXjXjXjXjXjXjXjXjXjXjXjXjXjXjXjX",
"jXjXjXjXjXjXjXjXjXjXjXjXjXjXjXjXi.s.N.W.W.A.-X-X9.=.l n o.o.E T R T R R T jXjXjXjXjXjXjXjXjXjXjXjXjXjXjXjXjXjXjXjXjXjXjXjXjXjXjX",
"jXjXjXjXjXjXjXjXjXjXjXjXjXjXjXjXjXD. X X X*X0.7.9.*.b @.0.1.O.! R U U R ! jXjXjXjXjXjXjXjXjXjXjXjXjXjXjXjXjXjXjXjXjXjXjXjXjXjXjX",
"jXjXjXjXjXjXjXjXjXjXjXjXjXjXjXjXjXjXw.r.r.5.o.Z ..! Q 2.<X<X<X8.[ E u y }  .jXjXjXjXjXjXjXjXjXjXjXjXjXjXjXjXjXjXjXjXjXjXjXjXjXjX",
"jXjXjXjXjXjXjXjXjXjXjXjXjXjXjXe.e.9.#. .#.o.c c e Q q.<X<X<X<Xe.7...A.n W [ #.jXjXjXjXjXjXjXjXjXjXjXjXjXjXjXjXjXjXjXjXjXjXjXjXjX",
"jXjXjXjXjXjXjXjXjXjXjXjXjXjXjX^ O.&.[ = = B f c n | e.<X<X<X<X1Xq.+.N e R | jXjXjXjXjXjXjXjXjXjXjXjXjXjXjXjXjXjXjXjXjXjXjXjXjXjX",
"jXjXjXjXjXjXjXjXjXjXjXjXjXjXjXjXW Q Q w w y  Xf n $.8.e.<X<X2.*.[ D A u T } jXjXjXjXjXjXjXjXjXjXjXjXjXjXjXjXjXjXjXjXjXjXjXjXjXjX",
"jXjXjXjXjXjXjXjXjXjXjXjXjXjXjXjXy E E { R { rXf & { +.8.r.9.| q e B J Z E jXjXjXjXjXjXjXjXjXjXjXjXjXjXjXjXjXjXjXjXjXjXjXjXjXjXjX",
"jXjXjXjXjXjXjXjXjXjXjXjXjXjXjX4.:.:.}.W Y ! *XF : & [ #.$.| R b x r B H 4.&XjXjXjXjXjXjXjXjXjXjXjXjXjXjXjXjXjXjXjXjXjXjXjXjXjXjX",
"jXjXjXjXjXjXjXjXjXjXjXjXjXjX%XV C V J ;X=X>.#Xl.j g M M m m b k s > < J P K I jXjXjXjXjXjXjXjXjXjXjXjXjXjXjXjXjXjXjXjXjXjXjXjXjX",
"jXjXjXjXjXjXjXjXjXjXjXjXjXjX%XK K V K &X&XL C x i.h.b.v.z p a.a.i   * C K V L jXjXjXjXjXjXjXjXjXjXjXjXjXjXjXjXjXjXjXjXjXjXjXjXjX",
"jXjXjXjXjXjXjXjXjXjXjXjXjXjXjX;X&X%XL r < , X jXjXf.b.!.n.; g h p o   , V P jXjXjXjXjXjXjXjXjXjXjXjXjXjXjXjXjXjXjXjXjXjXjXjXjXjX",
"jXjXjXjXjXjXjXjXjXjXjXjXjXjXjX+X#XI B + o X jXjXjXf.V.!.Q.m.- p d.g jXjXjXjXjXjXjXjXjXjXjXjXjXjXjXjXjXjXjXjXjXjXjXjXjXjXjXjXjXjX",
"jXjXjXjXjXjXjXjXjXjXjXjXjXjXjXjXjXjXjXjXjXjXjXjXh f.V.!.~.Q.n.a p d.jXjXjXjXjXjXjXjXjXjXjXjXjXjXjXjXjXjXjXjXjXjXjXjXjXjXjXjXjXjX",
"jXjXjXjXjXjXjXjXjXjXjXjXjXjXjXjXjXjXjXjXjXjXjXjXjXf.l.B.!.~.~.d - d.jXjXjXjXjXjXjXjXjXjXjXjXjXjXjXjXjXjXjXjXjXjXjXjXjXjXjXjXjXjX",
"jXjXjXjXjXjXjXjXjXjXjXjXjXjXjXjXjXjXjXjXjXjXjXjXjXjXp.l.C.^.Q.d - j c jXjXjXjXjXjXjXjXjXjXjXjXjXjXjXjXjXjXjXjXjXjXjXjXjXjXjXjXjX",
"jXjXjXjXjXjXjXjXjXjXjXjXjXjXjXjXjXjXjXjXjXjXjXjXjXjXi.l.C.^.Q.Z.z - g a.m  XjXjXjXjXjXjXjXjXjXjXjXjXjXjXjXjXjXjXjXjXjXjXjXjXjXjX",
"jXjXjXjXjXjXjXjXjXjXjXjXjXjXjXjXjXjXjXjXjXjXjXjXjXI D.F..XOXOXXXZ.z a v F K I +XjXjXjXjXjXjXjXjXjXjXjXjXjXjXjXjXjXjXjXjXjXjXjXjX",
"jXjXjXjXjXjXjXjXjXjXjXjXjXjXjXjXjXjXjXjXjXjXjXjXjX+X4.@X>XyXuXoXZ.n.; r H C J P ;.jXjXjXjXjXjXjXjXjXjXjXjXjXjXjXjXjXjXjXjXjXjXjX",
"jXjXjXjXjXjXjXjXjXjXjXjXjXjXjXjXjXjXjXjXjXjXjXjXI ;.#X@X%X:X:XoXn.; 1 * 1 L C A S q =.+X4.jXjXjXjXjXjXjXjXjXjXjXjXjXjXjXjXjXjXjX",
"jXjXjXjXjXjXjXjXjXjXjXjXjXjXjXjXjXjXjXjXjXjXjX  3 ~ %X>XuXyXuX,XoXn.; * < C & q ~ S :.+X:.q 9 U U U U U U jXjXjXjXjXjXjXjXjXjXjX",
"jXjXjXjXjXjXjXjXjXjXjXjXjXjXjXjXjXjXjXjXjXjXjX% y ,.>XsX3Xr.3.2.o.v O + 1 & % 4 q A P =.~ Y U U U U 7 2 2 jXjXjXjXjXjXjXjXjXjXjX",
"jXjXjXjXjXjXjXjXjXjXjXjXjXjXjXjXjXjXjXjXjXjX. 6 ,.yX3X3X3.) ) ) ( Y 0 # O % 2 % 5 < J Z 9 0 7 7 7 7 #     jXjXjXjXjXjXjXjXjXjXjX",
"jXjXjXjXjXjXjXjXjXjXjXjXjXjXjXjXjXjXjXjXjXjXX A &X}.' ' ` ) ) ) / / / 9 # . % 5 < < B t 2 2 $ . . . jXjXjXjXjXjXjXjXjXjXjXjXjXjX",
"jXjXjXjXjXjXjXjXjXjXjXjXjXjXjXjXjXjXjXjXjXjXX K ,.] _ _ _ _ _ ) _ _ _ / 9   . , < + @ X O O . jXjXjXjXjXjXjXjXjXjXjXjXjXjXjXjXjX",
"jXjXjXjXjXjXjXjXjXjXjXjXjXjXjXjXjXjXjXjXjXjX  < y U U U U U U U U U U Y 7     + ,           jXjXjXjXjXjXjXjXjXjXjXjXjXjXjXjXjXjX",
"jXjXjXjXjXjXjXjXjXjXjXjXjXjXjXjXjXjXjXjXjXjX                                      jXjXjXjXjXjXjXjXjXjXjXjXjXjXjXjXjXjXjXjXjXjXjX"
};
