/* XPM */
static char *result[] = {
/* columns rows colors chars-per-pixel */
"64 64 42 1 ",
"  c black",
". c #00001C",
"X c #00002C",
"o c #000034",
"O c #202020",
"+ c #2C2C2C",
"@ c gray22",
"# c #483818",
"$ c #6C4824",
"% c #744C28",
"& c #484848",
"* c gray33",
"= c #646464",
"- c gray44",
"; c #7C7C7C",
": c #A85400",
"> c #885830",
", c #9C6038",
"< c #A0643C",
"1 c #FC7800",
"2 c #A86840",
"3 c #B47044",
"4 c #BC7848",
"5 c #D08050",
"6 c #E88C58",
"7 c #F0945C",
"8 c #FCA85C",
"9 c #FC9C60",
"0 c #FCFC54",
"q c #0004FC",
"w c gray55",
"e c #989898",
"r c gray66",
"t c #B4B4B4",
"y c #FCB080",
"u c #FCBC9C",
"i c #C0C0C0",
"p c #D0D0D0",
"a c gainsboro",
"s c #ECECEC",
"d c gray99",
"f c None",
/* pixels */
"ffffffffffffffffffffffffffffffffffffffffffffffffffffffffffffffff",
"ffffffffffffffffffffffffffffffffffffffffffffffffffffffffffffffff",
"ffffffffffffffffffffffffffffffffffffffffffffffffffffffffffffffff",
"ffffffffffffffffffffffffffffffffffffffffffffffffffffffffffffffff",
"ffffffffffffffffffffffffffffffffffffffffffffffffffffffffffffffff",
"ffffffffffffffffffffffffffffffffffffffffffffffffffffffffffffffff",
"ffffffffffffffffffffffffffffffffffffffffffffffffffffffffffffffff",
"ffffffffffffffffffffffffffffffffffffffffffffffffffffffffffffffff",
"ffffffffffffffffffffffffffffffffffffffffffffffffffffffffffffffff",
"ffffffffffffffffffffffffffffffffffffffffffffffffffffffffffffffff",
"ffffffffffffffffffffffffffffffffffffffffffffffffffffffffffffffff",
"ffffffffffffffffffffffffffffffffffffffffffffffffffffffffffffffff",
"ffffffffffffffffffffffffffffffffffffffffffffffffffffffffffffffff",
"ffffffffffffffffffffffffffffffffffffffffffffffffffffffffffffffff",
"ffffffffffffffffffffffffffffffffffffffffffffffffffffffffffffffff",
"fffffffffffffffffffffffffffffrrw;*@fffffffffffffffffffffffffffff",
"ffffffffffffffffffffffffffffrr=-*&++ffffffffffffffffffffffffffff",
"ffffffffffffffffffffffffffffw;--***+ffffffffffffffffffffffffffff",
"fffffffffffffffffffffffffff@ipirw-**+fffffffffffffffffffffffffff",
"fffffffffffffffffffffffffff;O#$>>$#OOfffffffffffffffffffffffffff",
"ffffffffffffffffffffffffff;& 2qy4q2 OOffffffffffffffffffffffffff",
"ffffffffffffffffffffffffff O%7u42u7%OOffffffffffffffffffffffffff",
"fffffffffffffffffffffffffffO#5y77y5#Offfffffffffffffffffffffffff",
"ffffffffffffffffffffffffffff#,3##3,#ffffffffffffffffffffffffffff",
"ffffffffffffffffffffffffffff ,6yy6# ffffffffffffffffffffffffffff",
"fffffffffffffffffffffffffff   $<<<   fffffffffffffffffffffffffff",
"ffffffffffffffffffffffffpd;O@tO    r eee=fffffffffffffffffffffff",
"ffffffffffffffffffffffppddtOOO &&   waapptffffffffffffffffffffff",
"fffffffffffffffffffffppdaad;O wwiwwwiiippptfffffffffffffffffffff",
"ffffffffffffffffffffpdddatii=O&iwiaaaaiwepptffffffffffffffffffff",
"fffffffffffffffffffpdddpreii;OO&;i;;;;t=etptffffffffffffffffffff",
"fffffffffffffffffffddppr;*eii;OO&;riiet=etpptfffffffffffffffffff",
"ffffffffffffffffffpdapr;f----t;OOO-iiee=essptfffffffffffffffffff",
"ffffffffffffffffffdadddff*@ww-w-OOOee;*fp-eptfffffffffffffffffff",
"ffffffffffffffffffraddddff@*-*--*OOO-*@f*epptfffffffffffffffffff",
"fffffffffffffffffffrddppff  OOO088OOO  ffepptfffffffffffffffffff",
"ffffffffffffffffffffrp9999sssOO1:$OOO  ffeptefffffffffffffffffff",
"fffffffffffffffffffffr99OO&tss;;&;;;;=&ffepptfffffffffffffffffff",
"ffffffffffffffffffffff<4OOO&;ssretrrw;-=f9992fffffffffffffffffff",
"fffffffffffffffffffffff<OOOO&&rsewrre;-=f9292fffffffffffffffffff",
"fffffffffffffffffffffffffOOO&&&&&;rre;-=fff92fffffffffffffffffff",
"fffffffffffffffffffffffff;&&+;;&&-rrr;-=fff22fffffffffffffffffff",
"fffffffffffffffffffffffff;tttew=&*----*&ffff2fffffffffffffffffff",
"fffffffffffffffffffffffffristtw-**;rrre-ffffffffffffffffffffffff",
"fffffffffffffffffffffffferssir;-*-taiie-ffffffffffffffffffffffff",
"ffffffffffffffffffffffffeissir;=*wtapie;ffffffffffffffffffffffff",
"ffffffffffffffffffffffffessptr;=*wtaaat;ffffffffffffffffffffffff",
"fffffffffffffffffffffffftssptr;**wtaaatwffffffffffffffffffffffff",
"ffffffffffffffffffffffffpssspw;*fwtaaaieffffffffffffffffffffffff",
"fffffffffffffffffffffffppsaap;;*fwiaaaieffffffffffffffffffffffff",
"fffffffffffffffffffffffpttttse=@fwiaaate-fffffffffffffffffffffff",
"fffffffffffffffffffffffttttte*&*fwiwdsrt-fffffffffffffffffffffff",
"fffffffffffffffffffffff;tttr;=*fff-trrww&fffffffffffffffffffffff",
"fffffffffffffffffffffff;;ee;*@Offf&wwww-@fffffffffffffffffffffff",
"fffffffffffffffffffffffX@&&&@ ffff--=*&@+fffffffffffffffffffffff",
"fffffffffffffffffffffffXXoX.. ffffooX . ffffffffffffffffffffffff",
"fffffffffffffffffffffffXXoX.. ffffooX.. ffffffffffffffffffffffff",
"ffffffffffffffffffffffffooX.. ffffooX.. ffffffffffffffffffffffff",
"ffffffffffffffffffffffffX    fffff  XX. ffffffffffffffffffffffff",
"ffffffffffffffffffffffffXXX..Xfffff     ffffffffffffffffffffffff",
"ffffffffffffffffffffffffXooX. fffffoo. fffffffffffffffffffffffff",
"fffffffffffffffffffffffXoXXX. ffffoooo. ffffffffffffffffffffffff",
"fffffffffffffffffffffffXoXXXO ffffooooX. fffffffffffffffffffffff",
"ffffffffffffffffffffffffXXXXXfffff XX... fffffffffffffffffffffff"
};
