/* XPM */
static char *result[] = {
/* columns rows colors chars-per-pixel */
"64 64 229 2 ",
"   c #010101",
".  c #0A0101",
"X  c #0B0B0B",
"o  c #01010A",
"O  c #170403",
"+  c #060812",
"@  c #171516",
"#  c #19120E",
"$  c #280000",
"%  c #330000",
"&  c #3D0000",
"*  c #251614",
"=  c #331E14",
"-  c #32221B",
";  c #090B28",
":  c #0B0C39",
">  c #091627",
",  c #1D2123",
"<  c #272727",
"1  c #383939",
"2  c #2F3030",
"3  c #4D0000",
"4  c #410606",
"5  c #4F1210",
"6  c #630505",
"7  c #7E0000",
"8  c #750000",
"9  c #7D1A1A",
"0  c #4D271D",
"q  c #56172F",
"w  c #492D2A",
"e  c #742F2A",
"r  c #67192C",
"t  c #171747",
"y  c #151558",
"u  c #091945",
"i  c #221D54",
"p  c #00294A",
"a  c #3D3D43",
"s  c #2A2B54",
"d  c #181867",
"f  c #1E1E7E",
"g  c #181876",
"h  c #211E7E",
"j  c #2A1B75",
"k  c #0C2F73",
"l  c #2B2967",
"z  c #2A267A",
"x  c #3C2D71",
"c  c #4C164D",
"v  c #563451",
"b  c #49336B",
"n  c #553C6D",
"m  c #3D5163",
"M  c #444544",
"N  c #4E4B4B",
"B  c #5B4242",
"V  c #545454",
"C  c #595A5A",
"Z  c #4D4D51",
"A  c #684545",
"S  c #7F4949",
"D  c #635B59",
"F  c #7F5359",
"G  c #6F504A",
"H  c #565275",
"J  c #77546D",
"K  c #5F6060",
"L  c #6B6B6A",
"P  c #636565",
"I  c #737373",
"U  c #7C7D7C",
"Y  c #787277",
"T  c #7C6A6A",
"R  c #840000",
"E  c #8A0402",
"W  c #86130C",
"Q  c #89180E",
"!  c #871A14",
"~  c #8A2219",
"^  c #912E1E",
"/  c #832322",
"(  c #963C29",
")  c #853735",
"_  c #94362D",
"`  c #D60000",
"'  c #C70000",
"]  c #E30000",
"[  c #E90000",
"{  c #E00C0C",
"}  c #E11313",
"|  c #DA2323",
" . c #9C583B",
".. c #904D37",
"X. c #A14E36",
"o. c #A45A3D",
"O. c #9C603D",
"+. c #955845",
"@. c #855453",
"#. c #85504A",
"$. c #A85846",
"%. c #9B6147",
"&. c #986850",
"*. c #A36343",
"=. c #A7684C",
"-. c #A56C59",
";. c #B67655",
":. c #B56D55",
">. c #876667",
",. c #886277",
"<. c #827D7D",
"1. c #987574",
"2. c #B1766E",
"3. c #C37C58",
"4. c #D07265",
"5. c #E27474",
"6. c #83837F",
"7. c #BD846A",
"8. c #B98573",
"9. c #C8835A",
"0. c #C48463",
"q. c #CC8B6A",
"w. c #C98864",
"e. c #D28D6A",
"r. c #D3926F",
"t. c #DC9C7C",
"y. c #D89674",
"u. c #CB987E",
"i. c #DFA07F",
"p. c #E1A17F",
"a. c #1D1E82",
"s. c #201F81",
"d. c #1D2484",
"f. c #163494",
"g. c #212181",
"h. c #292685",
"j. c #2B2B8C",
"k. c #2B2882",
"l. c #353495",
"z. c #3D3D9D",
"x. c #35359B",
"c. c #373488",
"v. c #1D3EA4",
"b. c #3C3EA1",
"n. c #014886",
"m. c #004E93",
"M. c #3E4083",
"N. c #025CBA",
"B. c #1F53B3",
"V. c #3E40A1",
"C. c #2554B5",
"Z. c #0062B8",
"A. c #2C65A9",
"S. c #47459C",
"D. c #4F5590",
"F. c #6D6D8F",
"G. c #4444A4",
"H. c #4C4CAD",
"J. c #4949A6",
"K. c #4C4DB0",
"L. c #5454B4",
"P. c #5D5DBC",
"I. c #5557BD",
"U. c #5B5BA1",
"Y. c #675EAB",
"T. c #6562B6",
"R. c #6A60AB",
"E. c #005AC1",
"W. c #016AC9",
"Q. c #1363C4",
"!. c #0071D3",
"~. c #006FD0",
"^. c #5D5FC5",
"/. c #5F60C2",
"(. c #6161C1",
"). c #6B6BCB",
"_. c #7C7CCE",
"`. c #7474D3",
"'. c #7D7DDD",
"]. c #7979D3",
"[. c #9C7C9E",
"{. c #A37D92",
"}. c #8C75A9",
"|. c #7E8282",
" X c #728CAC",
".X c #778DBA",
"XX c #2B88DA",
"oX c #468DCB",
"OX c #78ADDA",
"+X c #838483",
"@X c #8D8D8C",
"#X c #898386",
"$X c #90908E",
"%X c #929292",
"&X c #9A9A9C",
"*X c #918D92",
"=X c #AF8282",
"-X c #B58584",
";X c #A69C9F",
":X c #A9AAAA",
">X c #B4B4B3",
",X c #8F8FBC",
"<X c #E3A282",
"1X c #E3A98B",
"2X c #E0AB90",
"3X c #E1BBBB",
"4X c #E2BAA7",
"5X c #CCB4A6",
"6X c #8484DC",
"7X c #9696D8",
"8X c #9192C4",
"9X c #A7A7D6",
"0X c #BBBBDB",
"qX c #8383E3",
"wX c #B9B9E7",
"eX c #98B2C3",
"rX c #C3BACA",
"tX c #BFC0C0",
"yX c #D7D5D7",
"uX c #CBCED0",
"iX c #E0DAD7",
"pX c #E0D0C8",
"aX c #CACAE7",
"sX c #D7D7E2",
"dX c #E1E2E3",
"fX c #E9E9E9",
"gX c #E6E6E8",
"hX c #D9E5E5",
"jX c None",
/* pixels */
"jXjXjXjXjXjXjXjXjXjXjXjXjXjXjXjXjXjXjXjXjXjXjXjXjXjXjXjXjXjXjXjXjXjXjXjXjXjXjXjXjXjXjXjXjXjXjXjXjXjXjXjXjXjXjXjXjXjXjXjXjXjXjXjX",
"jXjXjXjXjXjXjXjXjXjXjXjXjXjXjXjXjXjXjXjXjXjXjXjXjXjXjXjXjXjXjXjXjXjXjXjXjXjXjXjXjXjXjXjXjXjXjXjXjXjXjXjXjXjXjXjXjXjXjXjXjXjXjXjX",
"jXjXjXjXjXjXjXjXjXjXjXjXjXjXjXjXjXjXjXjXjXjXjXjXjXjXjXjXjXjXjXjXjXjXjXjXjXjXjXjXjXjXjXjXjXjXjXjXjXjXjXjXjXjXjXjXjXjXjXjXjXjXjXjX",
"jXjXjXjXjXjXjXjXjXjXjXjXjXjXjXjXjXjXjXjXjXjXjXjXjXjXjXjXjXjXjXjXjXjXjXjXjXjXjXjXjXjXjXjXjXjXjXjXjXjXjXjXjXjXjXjXjXjXjXjXjXjXjXjX",
"jXjXjXjXjXjXjXjXjXjXjXjXjXjXjXjXjXjXjXjXjXjXjXjXjXjXjXjXjXjXjXjXjXjXjXjXjXjXjXjXjXjXjXjXjXjXjXjXjXjXjXjXjXjXjXjXjXjXjXjXjXjXjXjX",
"jXjXjXjXjXjXjXjXjXjXjXjXjXjXjXjXjXjXjXjXjXjXjXjXjXjXjXjXjXjXjXjXjXjXjXjXjXjXjXjXjXjXjXjXjXjXjXjXjXjXjXjXjXjXjXjXjXjXjXjXjXjXjXjX",
"jXjXjXjXjXjXjXjXjXjXjXjXjXjXjXjXjXjXjXjXjXjXjXjXjXjXjXjXjXjXjXjXjXjXjXjXjXjXjXjXjXjXjXjXjXjXjXjXjXjXjXjXjXjXjXjXjXjXjXjXjXjXjXjX",
"jXjXjXjXjXjXjXjXjXjXjXjXjXjXjXjXjXjXjXjXjXjXjXjXjXjXjXjXjXjXjXjXjXjXjXjXjXjXjXjXjXjXjXjXjXjXjXjXjXjXjXjXjXjXjXjXjXjXjXjXjXjXjXjX",
"jXjXjXjXjXjXjXjXjXjXjXjXjXjXjXjXjXjXjXjXjXjXjXjXjXjXjXjXjXjXjXjXjXjXjXjXjXjXjXjXjXjXjXjXjXjXjXjXjXjXjXjXjXjXjXjXjXjXjXjXjXjXjXjX",
"jXjXjXjXjXjXjXjXjXjXjXjXjXjXjXjXjXjXjXjXjXjXjXjXjXjXjXjXjXjXjXjXjXjXjXjXjXjXjXjXjXjXjXjXjXjXjXjXjXjXjXjXjXjXjXjXjXjXjXjXjXjXjXjX",
"jXjXjXjXjXjXjXjXjXjXjXjXjXjXjXjXjXjXjXjXjXjXjXjXjXjXjXjXjXjXjXjXjXjXjXjXjXjXjXjXjXjXjXjXjXjXjXjXjXjXjXjXjXjXjXjXjXjXjXjXjXjXjXjX",
"jXjXjXjXjXjXjXjXjXjXjXjXjXjXjXjXjXjXjXjXjXjXjXjXjXjXjXjXjXjXjXjXjXjXjXjXjXjXjXjXjXjXjXjXjXjXjXjXjXjXjXjXjXjXjXjXjXjXjXjXjXjXjXjX",
"jXjXjXjXjXjXjXjXjXjXjXjXjXjXjXjXjXjXjXjXjXjXz.b.V.S.z.V.z.V.jXjXjXjXjXjXjXjXjXjXjXjXjXjXjXjXjXjXjXjXjXjXjXjXjXjXjXjXjXjXjXjXjXjX",
"jXjXjXjXjXjXjXjXjXjXjXjXjXjXjXjXjXjXjXjXjXH.K.K.K.K.H.H.K.K.jXjXjXjXjXjXjXjXjXjXjXjXjXjXjXjXjXjXjXjXjXjXjXjXjXjXjXjXjXjXjXjXjXjX",
"jXjXjXjXjXjXjXjXjXjXjXjXjXjXjXjXjXjXjXx.z.G.L.Y.Y.Y.(.(.(.P.J.G.G.G.jXjXjXjXjXjXjXjXjXjXjXjXjXjXjXjXjXjXjXjXjXjXjXjXjXjXjXjXjXjX",
"jXjXjXjXjXjXjXjXjXjXjXjXjXjXjXjXjXjXz.j.s.h.j.F =.>.T.(.P.P.P.I.P.P.G.V.G.jXjXjXg.g.jXjXjXjXjXjXjXjXjXjXjXjXjXjXjXjXjXjXjXjXjXjX",
"jXjXjXjXjXjXjXjXjXjXjXjXjXjXjXjXjXh.j.g.f f z 1.e.3.,.Y.^.(.`.)././.L.L.L.P.j.f a.g.jXjXjXjXjXjXjXjXjXjXjXjXjXjXjXjXjXjXjXjXjXjX",
"jXjXjXjXjXjXjXjXjXjXjXjXjXjXjXjXjXd.h g.g.a.k.8.<Xy.3.,.R.(.`.`.(.T.(.(.(.P.z.j.h.g.jXjXjXjXjXjXjXjXjXjXjXjXjXjXjXjXjXjXjXjXjXjX",
"jXjXjXjXjXjXjXjXjXjXjXjXjXjXjXjXjXjXjXjXh s.k.{.<X<Xt.3.,.^.(.`.].(.(.(.(.T.(.L.x.h.jXjXjXjXjXjXjXjXjXjXjXjXjXjXjXjXjXjXjXjXjXjX",
"jXjXjXjXjXjXjXjXjXjXjXjXjXjXjXjXjXjXjXjXjXjXk.8.<X<X<Xy.{.).`.qX'.'.(././.^.(.(.H.g.jXjXjXjXjXjXjXjXjXjXjXjXjXjXjXjXjXjXjXjXjXjX",
"jXjXjXjXjXjXjXjXjXjXjXjXjXjXjXjXjXjXjXjXjXjXc.2.9.2.*X[.}.(.).'.qX'.(.^./.(.P.(.L.l.jXjXjXjXjXjXjXjXjXjXjXjXjXjXjXjXjXjXjXjXjXjX",
"jXjXjXjXjXjXjXjXjXjXjXjXjXjXjXjXjXjXjXjXjXjXz.J @.J T.^.I.L.L.).'.'.(././.^.(.(.P.G.jXjXjXjXjXjXjXjXjXjXjXjXjXjXjXjXjXjXjXjXjXjX",
"jXjXjXjXjXjXjXjXjXjXjXjXjXjXjXjXjXjXjXz.S.V.z.S.S.G.P.H.J.J.G.L.).'.).(.(.T.P.(.I.G.jXjXjXjXjXjXjXjXjXjXjXjXjXjXjXjXjXjXjXjXjXjX",
"jXjXjXjXjXjXjXjXjXjXjXjXjXjXjXjXjXG.b.j.h.j.z.V.z.G.J.(.7X9X_.K.K.).].).P.(.(.).`.P.J.jXjXjXjXjXjXjXjXjXjXjXjXjXjXjXjXjXjXjXjXjX",
"jXjXjXjXjXjXjXjXjXjXjXjXjXjXjXjXl.l.j.g.f h.b.V.b.J.P.7XaXfXwX_.L.K.).).P.(.L.8X9X`.K.b.jXjXjXjXjXjXjXjXjXjXjXjXjXjXjXjXjXjXjXjX",
"jXjXjXjXjXjXjXjXjXjXjXjXjXjXjXx.j.f h g.f h.x.S.z.H.6XaXuX>X>X9X].K.L.P.(.P.G.8XsX7XL.b.jXjXjXjXjXjXjXjXjXjXjXjXjXjXjXjXjXjXjXjX",
"jXjXjXjXjXjXjXjXjXjXjXjXjXjXg.g.z h g.f a.d.h.z.b.H.'.aX@XX @ %XwX].K.L.(.T.z.8XdXyXR.x.jXjXjXjXjXjXjXjXjXjXjXjXjXjXjXjXjXjXjXjX",
"jXjXjXjXjXjXjXjXjXjXjXjXjXjXg.f a.d.g.g.z f g.x.G.H.6XaX6.    $XgXwX_.L.H.S.t F.gXsXU.a.jXjXjXjXjXjXjXjXjXjXjXjXjXjXjXjXjXjXjXjX",
"jXjXjXjXjXjXjXjXjXjXjXjXjXjXg.g.a.a.g.f g.g.g.j.l.K.6XaX6.    $XfXdXwX_.S.i o I gXyXU.g jXjXjXjXjXjXjXjXjXjXjXjXjXjXjXjXjXjXjXjX",
"jXjXjXjXjXjXjXjXjXjXjXjXjXjXjXjXjXjXjXg.d.h g.f j.J.`.aX+X    @XfXyXdXwXU.X   I gXyXS.g jXjXjXjXjXjXjXjXjXjXjXjXjXjXjXjXjXjXjXjX",
"jXjXjXjXjXjXjXjXjXjXjXjXjXjXjXjXjXjXjXjXh d.h f g.j.J.0X+X  . @XfXdXiXdX&XX   I aX6Xz.g jXjXjXjXjXjXjXjXjXjXjXjXjXjXjXjXjXjXjXjX",
"jXjXjXjXjXjXjXjXjXjXjXjXjXjXjXjXjXjXjXjXh g.h g.s.a.j._.eX*X%XuXdXdXdX5X1.V X V %X{.H jXjXjXjXjXjXjXjXjXjXjXjXjXjXjXjXjXjXjXjXjX",
"jXjXjXjXjXjXjXjXjXjXjXjXjXjXjXjXjXjXjXg.a.a.a.a.a.z b }.rXgXgXgXdXdXpXu.&.Z X , A O.jXjXjXjXjXjXjXjXjXjXjXjXjXjXjXjXjXjXjXjXjXjX",
"jXjXjXjXjXjXjXjXjXjXjXjXjXjXjXjXjXjXg.g.f z a.z a.x +.e.4XiXiXiXyXpX2X<X;.* # # = ..jXjXjXjXjXjXjXjXjXjXjXjXjXjXjXjXjXjXjXjXjXjX",
"jXjXjXjXjXjXjXjXjXjXjXjXjXjXjXjXjXjXa.f a.g.h s.a.x +.y.1X2X2X2X2X2X<X<Xt.7.8.&...W jXjXjXjXjXjXjXjXjXjXjXjXjXjXjXjXjXjXjXjXjXjX",
"jXjXjXjXjXjXjXjXjXjXjXjXjXjXjXjXjXg.a.a.z g.h t y h.n -.3.3.t.<Xp.y.+.e &.<Xe.o.~ jXjXjXjXjXjXjXjXjXjXjXjXjXjXjXjXjXjXjXjXjXjXjX",
"jXjXjXjXjXjXjXjXjXjXjXjXjXjXjXjXg.h h h s.s.f : : y y v F @.0.r.r.9.e 5 e :.X.Q R jXjXjXjXjXjXjXjXjXjXjXjXjXjXjXjXjXjXjXjXjXjXjX",
"jXjXjXjXjXjXjXjXjXjXjXjXjXjXjXjXf d.d.d.h.k.k.z t # + i j b #.o. .o... ...E E jXjXjXjXjXjXjXjXjXjXjXjXjXjXjXjXjXjXjXjXjXjXjXjXjX",
"jXjXjXjXjXjXjXjXjXjXjXjXjXjXjXjXa.f.N.E.N.A.{.-X8.>.l v #.#.W W W Q Q Q W jXjXjXjXjXjXjXjXjXjXjXjXjXjXjXjXjXjXjXjXjXjXjXjXjXjXjX",
"jXjXjXjXjXjXjXjXjXjXjXjXjXjXjXjXjXD. X X X*X9.9.e.:.c -.w.3.$._ Q 7 R Q ( jXjXjXjXjXjXjXjXjXjXjXjXjXjXjXjXjXjXjXjXjXjXjXjXjXjXjX",
"jXjXjXjXjXjXjXjXjXjXjXjXjXjXjXjXjXjXr.r.y.7.#.S #.( ^ 4.<X<X<X4. .! r ) o.O.jXjXjXjXjXjXjXjXjXjXjXjXjXjXjXjXjXjXjXjXjXjXjXjXjXjX",
"jXjXjXjXjXjXjXjXjXjXjXjXjXjXjXt.t.q.=.O.*.@.z z q ^ e.<X<X<X<Xt.9.@.A.v Q O.*.jXjXjXjXjXjXjXjXjXjXjXjXjXjXjXjXjXjXjXjXjXjXjXjXjX",
"jXjXjXjXjXjXjXjXjXjXjXjXjXjXjX^ $.;. .= w M s z v o.t.<X<X<X<X<Xe.O.m q Q *.jXjXjXjXjXjXjXjXjXjXjXjXjXjXjXjXjXjXjXjXjXjXjXjXjXjX",
"jXjXjXjXjXjXjXjXjXjXjXjXjXjXjXjX~ ^ ^ 0 0 A 6.s v =.0.t.<X<Xw.3.o.G V r E  .jXjXjXjXjXjXjXjXjXjXjXjXjXjXjXjXjXjXjXjXjXjXjXjXjXjX",
"jXjXjXjXjXjXjXjXjXjXjXjXjXjXjXjX/ ! ! ..Q ..rXa - ..$.0.y.w. .9 0 M I ) ~ jXjXjXjXjXjXjXjXjXjXjXjXjXjXjXjXjXjXjXjXjXjXjXjXjXjXjX",
"jXjXjXjXjXjXjXjXjXjXjXjXjXjXjX{.Y #X1./ 7 _ &Xc.: =  .=.=.+.! c l w M D +X&XjXjXjXjXjXjXjXjXjXjXjXjXjXjXjXjXjXjXjXjXjXjXjXjXjXjX",
"jXjXjXjXjXjXjXjXjXjXjXjXjXjX$XC V C L ;X8.1.#Xc.g i H b b b c h d , 1 L U P I jXjXjXjXjXjXjXjXjXjXjXjXjXjXjXjXjXjXjXjXjXjXjXjXjX",
"jXjXjXjXjXjXjXjXjXjXjXjXjXjX%XL P C K &X&XI V l a.h.x.B.g y d.g.y   , N P C I jXjXjXjXjXjXjXjXjXjXjXjXjXjXjXjXjXjXjXjXjXjXjXjXjX",
"jXjXjXjXjXjXjXjXjXjXjXjXjXjXjX&X&X$XI M 1 <   jXjXh.V.Q.k > k f y +   < V U jXjXjXjXjXjXjXjXjXjXjXjXjXjXjXjXjXjXjXjXjXjXjXjXjXjX",
"jXjXjXjXjXjXjXjXjXjXjXjXjXjXjX#X@XI M @ o X jXjXjXj.V.Q.W.m.> y h d jXjXjXjXjXjXjXjXjXjXjXjXjXjXjXjXjXjXjXjXjXjXjXjXjXjXjXjXjXjX",
"jXjXjXjXjXjXjXjXjXjXjXjXjXjXjXjXjXjXjXjXjXjXjXjXd.h.V.Q.!.W.n.u y g.jXjXjXjXjXjXjXjXjXjXjXjXjXjXjXjXjXjXjXjXjXjXjXjXjXjXjXjXjXjX",
"jXjXjXjXjXjXjXjXjXjXjXjXjXjXjXjXjXjXjXjXjXjXjXjXjXg.l.B.Q.~.~.p ; h jXjXjXjXjXjXjXjXjXjXjXjXjXjXjXjXjXjXjXjXjXjXjXjXjXjXjXjXjXjX",
"jXjXjXjXjXjXjXjXjXjXjXjXjXjXjXjXjXjXjXjXjXjXjXjXjXjXg.l.C.~.~.p ; g f jXjXjXjXjXjXjXjXjXjXjXjXjXjXjXjXjXjXjXjXjXjXjXjXjXjXjXjXjX",
"jXjXjXjXjXjXjXjXjXjXjXjXjXjXjXjXjXjXjXjXjXjXjXjXjXjXa.l.C.~.W.Z.k ; g g.d.jXjXjXjXjXjXjXjXjXjXjXjXjXjXjXjXjXjXjXjXjXjXjXjXjXjXjX",
"jXjXjXjXjXjXjXjXjXjXjXjXjXjXjXjXjXjXjXjXjXjXjXjXjXY D.F..XOXOXXXZ.k : d a.h.F.+XjXjXjXjXjXjXjXjXjXjXjXjXjXjXjXjXjXjXjXjXjXjXjXjX",
"jXjXjXjXjXjXjXjXjXjXjXjXjXjXjXjXjXjXjXjXjXjXjXjXjX+X6.@X>XyXuXoXZ.m., t z l P U +XjXjXjXjXjXjXjXjXjXjXjXjXjXjXjXjXjXjXjXjXjXjXjX",
"jXjXjXjXjXjXjXjXjXjXjXjXjXjXjXjXjXjXjXjXjXjXjXjXY <.+X@X%X:X:XoXn.X 2 v 1 a M P U jXjXjXjXjXjXjXjXjXjXjXjXjXjXjXjXjXjXjXjXjXjXjX",
"jXjXjXjXjXjXjXjXjXjXjXjXjXjXjXjXjXjXjXjXjXjXjXo 4 ) *X>XuXyXuXeXK   X 2 M M P U {.U 9 jXjXjXjXjXjXjXjXjXjXjXjXjXjXjXjXjXjXjXjXjX",
"jXjXjXjXjXjXjXjXjXjXjXjXjXjXjXjXjXjXjXjXjXjXjX$ e 2.>XhX3X5.5.4...$ O @ < w B A A S S #.jXjXjXjXjXjXjXjXjXjXjXjXjXjXjXjXjXjXjXjX",
"jXjXjXjXjXjXjXjXjXjXjXjXjXjXjXjXjXjXjXjXjXjX. 6 2.yX3X3X5.] ` ] ' R 6 $ . % & & 3 9 >.|.6.>.jXjXjXjXjXjXjXjXjXjXjXjXjXjXjXjXjXjX",
"jXjXjXjXjXjXjXjXjXjXjXjXjXjXjXjXjXjXjXjXjXjXX C &X{.} } { ] ] ] ` ` ` 7 $ . % 4 0 Y U |.T ! 7 R R R jXjXjXjXjXjXjXjXjXjXjXjXjXjX",
"jXjXjXjXjXjXjXjXjXjXjXjXjXjXjXjXjXjXjXjXjXjXX L 2.| [ [ [ [ ] [ [ [ [ ` 7 . $ 5 w V C B 0 3 8 R R R R R R R jXjXjXjXjXjXjXjXjXjX",
"jXjXjXjXjXjXjXjXjXjXjXjXjXjXjXjXjXjXjXjXjXjX  1 e E R R R R R R R R R E 6 . O * < < < * $ $ & 3 3 3 3 3 3 3 jXjXjXjXjXjXjXjXjXjX",
"jXjXjXjXjXjXjXjXjXjXjXjXjXjXjXjXjXjXjXjXjXjX                                              o                 jXjXjXjXjXjXjXjXjXjX"
};
