/* XPM */
static char *result[] = {
/* columns rows colors chars-per-pixel */
"64 64 221 2 ",
"   c #010000",
".  c #0A0101",
"X  c #090A0A",
"o  c #06080A",
"O  c #180000",
"+  c #050818",
"@  c #181718",
"#  c #280000",
"$  c #330000",
"%  c #3D0000",
"&  c #281210",
"*  c #0E0F3E",
"=  c #11142E",
"-  c #252424",
";  c #373738",
":  c #372722",
">  c #4D0000",
",  c #420504",
"<  c #4E1111",
"1  c #630505",
"2  c #7E0000",
"3  c #750000",
"4  c #751017",
"5  c #5C2F1F",
"6  c #78211A",
"7  c #652B1E",
"8  c #6A1B3F",
"9  c #4A2B29",
"0  c #712D29",
"q  c #684834",
"w  c #271F58",
"e  c #3E3E43",
"r  c #303054",
"t  c #181868",
"y  c #1E1E7E",
"u  c #13137A",
"i  c #211E71",
"p  c #28247B",
"a  c #362C76",
"s  c #3A367D",
"d  c #2C2469",
"f  c #091D53",
"g  c #563A5A",
"h  c #512C56",
"j  c #692A46",
"k  c #513865",
"l  c #434444",
"z  c #4C4C4C",
"x  c #574645",
"c  c #555655",
"v  c #5C5C5E",
"b  c #4F5050",
"n  c #6A4849",
"m  c #7C4942",
"M  c #784B57",
"N  c #675555",
"B  c #434364",
"V  c #465E6E",
"C  c #7B5364",
"Z  c #694D75",
"A  c #745474",
"S  c #6A4867",
"D  c #6B6C6C",
"F  c #646666",
"G  c #7E7D7D",
"H  c #747375",
"J  c #726B6F",
"K  c #840000",
"L  c #870604",
"P  c #87140E",
"I  c #8D291C",
"U  c #912C1B",
"Y  c #94301D",
"T  c #923222",
"R  c #95352A",
"E  c #823938",
"W  c #923C3A",
"Q  c #8A2A20",
"!  c #D60000",
"~  c #C70000",
"^  c #E30000",
"/  c #E90000",
"(  c #E00C0C",
")  c #E11313",
"_  c #DA2323",
"`  c #98573A",
"'  c #90452E",
"]  c #804C4B",
"[  c #835B46",
"{  c #94544B",
"}  c #A05C5D",
"|  c #966158",
" . c #9E6448",
".. c #A16142",
"X. c #AC6B4B",
"o. c #A6664A",
"O. c #B36B4C",
"+. c #B2704C",
"@. c #A76B56",
"#. c #B97856",
"$. c #B76C50",
"%. c #885D67",
"&. c #846767",
"*. c #807D7D",
"=. c #936364",
"-. c #B67962",
";. c #AE746F",
":. c #E27474",
">. c #D36866",
",. c #83837F",
"<. c #95867E",
"1. c #B28574",
"2. c #CC8C6D",
"3. c #C38365",
"4. c #D7936A",
"5. c #C78C71",
"6. c #D49473",
"7. c #DD9D7C",
"8. c #D99672",
"9. c #D08E72",
"0. c #E19E7C",
"q. c #E3A17F",
"w. c #1C1E81",
"e. c #173C9C",
"r. c #212282",
"t. c #2C2982",
"y. c #2A2A8A",
"u. c #23278A",
"i. c #263797",
"p. c #343393",
"a. c #3C3C9D",
"s. c #383897",
"d. c #3D3886",
"f. c #3E3FA2",
"g. c #483B86",
"h. c #014989",
"j. c #3B4E95",
"k. c #0957B7",
"l. c #1E59B9",
"z. c #3846A6",
"x. c #2A50B1",
"c. c #33638D",
"v. c #574787",
"b. c #46479A",
"n. c #54549A",
"m. c #514C87",
"M. c #6F588C",
"N. c #727195",
"B. c #4242A2",
"V. c #4B4BA5",
"C. c #4C4CAD",
"Z. c #4345A9",
"A. c #524FA9",
"S. c #5656A7",
"D. c #5454B4",
"F. c #5B5BBC",
"G. c #5858B6",
"H. c #4D4DB1",
"J. c #6864B3",
"K. c #6063AF",
"L. c #026BCC",
"P. c #0666C6",
"I. c #0072D4",
"U. c #5D5EC3",
"Y. c #6262C2",
"T. c #6C6CCC",
"R. c #7474D4",
"E. c #7C7CDA",
"W. c #846484",
"Q. c #96748A",
"!. c #8A75A8",
"~. c #7E8282",
"^. c #768DBB",
"/. c #2B84D2",
"(. c #468DCB",
"). c #77ADDB",
"_. c #828382",
"`. c #8C8C8C",
"'. c #898887",
"]. c #948E8C",
"[. c #939292",
"{. c #9D9E9E",
"}. c #8F8D8F",
"|. c #B78786",
" X c #AF9E96",
".X c #A0A09D",
"XX c #A8A8A9",
"oX c #B4B4B3",
"OX c #9395A8",
"+X c #D59981",
"@X c #CA9B84",
"#X c #E3A281",
"$X c #E7A887",
"%X c #E1B39C",
"&X c #E0AB91",
"*X c #E1BAA6",
"=X c #E1BBBB",
"-X c #DAA391",
";X c #8B8BD8",
":X c #9595D8",
">X c #8181C9",
",X c #AFAED0",
"<X c #8181E1",
"1X c #A0A2E1",
"2X c #98B2C3",
"3X c #C0BBC5",
"4X c #BFC0C0",
"5X c #DADADB",
"6X c #D7D4D6",
"7X c #CACED5",
"8X c #E2DBD7",
"9X c #E0CDC4",
"0X c #E0E0DC",
"qX c #CBCBE3",
"wX c #C9C9E6",
"eX c #D9D9E3",
"rX c #DCE3E3",
"tX c #E3E3E2",
"yX c #E8E8E8",
"uX c #E8E8E7",
"iX c None",
/* pixels */
"iXiXiXiXiXiXiXiXiXiXiXiXiXiXiXiXiXiXiXiXiXiXiXiXiXiXiXiXiXiXiXiXiXiXiXiXiXiXiXiXiXiXiXiXiXiXiXiXiXiXiXiXiXiXiXiXiXiXiXiXiXiXiXiX",
"iXiXiXiXiXiXiXiXiXiXiXiXiXiXiXiXiXiXiXiXiXiXiXiXiXiXiXiXiXiXiXiXiXiXiXiXiXiXiXiXiXiXiXiXiXiXiXiXiXiXiXiXiXiXiXiXiXiXiXiXiXiXiXiX",
"iXiXiXiXiXiXiXiXiXiXiXiXiXiXiXiXiXiXiXiXiXiXiXiXiXiXiXiXiXiXiXiXiXiXiXiXiXiXiXiXiXiXiXiXiXiXiXiXiXiXiXiXiXiXiXiXiXiXiXiXiXiXiXiX",
"iXiXiXiXiXiXiXiXiXiXiXiXiXiXiXiXiXiXiXiXiXiXiXiXiXiXiXiXiXiXiXiXiXiXiXiXiXiXiXiXiXiXiXiXiXiXiXiXiXiXiXiXiXiXiXiXiXiXiXiXiXiXiXiX",
"iXiXiXiXiXiXiXiXiXiXiXiXiXiXiXiXiXiXiXiXiXiXiXiXiXiXiXiXiXiXiXiXiXiXiXiXiXiXiXiXiXiXiXiXiXiXiXiXiXiXiXiXiXiXiXiXiXiXiXiXiXiXiXiX",
"iXiXiXiXiXiXiXiXiXiXiXiXiXiXiXiXiXiXiXiXiXiXiXiXiXiXiXiXiXiXiXiXiXiXiXiXiXiXiXiXiXiXiXiXiXiXiXiXiXiXiXiXiXiXiXiXiXiXiXiXiXiXiXiX",
"iXiXiXiXiXiXiXiXiXiXiXiXiXiXiXiXiXiXiXiXiXiXiXiXiXiXiXiXiXiXiXiXiXiXiXiXiXiXiXiXiXiXiXiXiXiXiXiXiXiXiXiXiXiXiXiXiXiXiXiXiXiXiXiX",
"iXiXiXiXiXiXiXiXiXiXiXiXiXiXiXiXiXiXiXiXiXiXiXiXiXiXiXiXiXiXiXiXiXiXiXiXiXiXiXiXiXiXiXiXiXiXiXiXiXiXiXiXiXiXiXiXiXiXiXiXiXiXiXiX",
"iXiXiXiXiXiXiXiXiXiXiXiXiXiXiXiXiXiXiXiXiXiXiXiXiXiXiXiXiXiXiXiXiXiXiXiXiXiXiXiXiXiXiXiXiXiXiXiXiXiXiXiXiXiXiXiXiXiXiXiXiXiXiXiX",
"iXiXiXiXiXiXiXiXiXiXiXiXiXiXiXiXiXiXiXiXiXiXiXiXiXiXiXiXiXiXiXiXiXiXiXiXiXiXiXiXiXiXiXiXiXiXiXiXiXiXiXiXiXiXiXiXiXiXiXiXiXiXiXiX",
"iXiXiXiXiXiXiXiXiXiXiXiXiXiXiXiXiXiXiXiXiXiXiXiXiXiXiXiXiXiXiXiXiXiXiXiXiXiXiXiXiXiXiXiXiXiXiXiXiXiXiXiXiXiXiXiXiXiXiXiXiXiXiXiX",
"iXiXiXiXiXiXiXiXiXiXiXiXiXiXiXiXiXiXiXiXiXiXiXiXiXiXiXiXiXiXiXiXiXiXiXiXiXiXiXiXiXiXiXiXiXiXiXiXiXiXiXiXiXiXiXiXiXiXiXiXiXiXiXiX",
"iXiXiXiXiXiXiXiXiXiXiXiXiXiXiXiXiXiXiXiXiXiXiXiXiXiXiXiXiXiXiXiXiXiXiXiXiXiXiXiXiXiXiXiXiXiXiXiXiXiXiXiXiXiXiXiXiXiXiXiXiXiXiXiX",
"iXiXiXiXiXiXiXiXiXiXiXiXiXiXiXiXiXiXiXiXiXiXiXiXiXiXiXiXiXiXiXiXiXiXiXiXiXiXiXiXiXiXiXiXiXiXiXiXiXiXiXiXiXiXiXiXiXiXiXiXiXiXiXiX",
"iXiXiXiXiXiXiXiXiXiXiXiXiXiXiXiXiXiXiXiXs.a.a.a.s.a.Z.V.Z.V.iXiXiXiXiXiXiXiXiXiXiXiXiXiXiXiXiXiXiXiXiXiXiXiXiXiXiXiXiXiXiXiXiXiX",
"iXiXiXiXiXiXiXiXiXiXiXiXiXiXiXiXf.f.f.t.r.r.r.u.r.p.D.F.F.G.Z.a.B.g.iXiXiXiXiXiXu.iXiXiXiXiXiXiXiXiXiXiXiXiXiXiXiXiXiXiXiXiXiXiX",
"iXiXiXiXiXiXiXiXiXiXiXiXiXiXiXB.p.y.y.r.r.y r.A %.S C.F.Y.U.D.D.D.D.B.s.iXiXiXw.r.iXiXiXiXiXiXiXiXiXiXiXiXiXiXiXiXiXiXiXiXiXiXiX",
"iXiXiXiXiXiXiXiXiXiXiXiXiXiXiXB.y.y y y r.y t.|.4.@.Z A.F.Y.T.T.F.Y.C.C.C.iXiXp w.iXiXiXiXiXiXiXiXiXiXiXiXiXiXiXiXiXiXiXiXiXiXiX",
"iXiXiXiXiXiXiXiXiXiXiXiXiXiXiXiXiXiXr.r.r.w.t.|.$X6.o.M.C.T.R.T.Y.Y.Y.Y.D.B.y.r.p w.iXiXiXiXiXiXiXiXiXiXiXiXiXiXiXiXiXiXiXiXiXiX",
"iXiXiXiXiXiXiXiXiXiXiXiXiXiXiXiXiXiXiXiXw.r.t.1.#X7.6.@.A Y.Y.R.E.E.Y.Y.F.F.B.y.y r.iXiXiXiXiXiXiXiXiXiXiXiXiXiXiXiXiXiXiXiXiXiX",
"iXiXiXiXiXiXiXiXiXiXiXiXiXiXiXiXiXiXiXiXiXw.p =.6.#X#X8.Q.U.T.;X<XE.R.T.Y.Y.D.B.y.r.iXiXiXiXiXiXiXiXiXiXiXiXiXiXiXiXiXiXiXiXiXiX",
"iXiXiXiXiXiXiXiXiXiXiXiXiXiXiXiXiXiXiXiXiXiXp ] #.9.|.|.!.F.T.T.R.E.E.R.Y.Y.Y.H.s.r.iXiXiXiXiXiXiXiXiXiXiXiXiXiXiXiXiXiXiXiXiXiX",
"iXiXiXiXiXiXiXiXiXiXiXiXiXiXiXiXiXiXiXiXiXiXa M ..=.J.A.b.A.n.V.H.Y.E.E.R.Y.Y.D.s.u.iXiXiXiXiXiXiXiXiXiXiXiXiXiXiXiXiXiXiXiXiXiX",
"iXiXiXiXiXiXiXiXiXiXiXiXiXiXiXiXiXiXiXf.Z.p.r.v.v.v.V.Y.:X,X,X;XU.C.Y.E.R.Y.Y.T.Y.a.iXiXiXiXiXiXiXiXiXiXiXiXiXiXiXiXiXiXiXiXiXiX",
"iXiXiXiXiXiXiXiXiXiXiXiXiXiXiXiXiXiXB.B.s.p.p.a.f.Z.F.:XqXuXtXqX:XF.H.Y.T.Y.H.>X1XU.C.iXiXiXiXiXiXiXiXiXiXiXiXiXiXiXiXiXiXiXiXiX",
"iXiXiXiXiXiXiXiXiXiXiXiXiXiXiXiXB.a.s.s.y.u.a.f.f.C.<XwXtXtXtXtXwX;XG.H.F.F.S.,XeX:XD.a.iXiXiXiXiXiXiXiXiXiXiXiXiXiXiXiXiXiXiXiX",
"iXiXiXiXiXiXiXiXiXiXiXiXiXiXB.a.f.p.u.r.r.y.f.f.g.C.E.qX0X5X5X5XeXqX:XF.b.A.,X5XtX6XJ.s.iXiXiXiXiXiXiXiXiXiXiXiXiXiXiXiXiXiXiXiX",
"iXiXiXiXiXiXiXiXiXiXiXiXiXp.y.y.y.t.r.y w.i.g.B.f.C.E.wX.Xe l XXuX0XqX:Xb.= ; [.uX5XS.w.iXiXiXiXiXiXiXiXiXiXiXiXiXiXiXiXiXiXiXiX",
"iXiXiXiXiXiXiXiXiXiXiXiXiXp.y y w.y y r.y u.p.a.f.H.E.qX_.    `.yX0XtXwXN.    J yXeXn.u iXiXiXiXiXiXiXiXiXiXiXiXiXiXiXiXiXiXiXiX",
"iXiXiXiXiXiXiXiXiXiXiXiXiXiXiXiXr.r.r.y y y w.a.f.H.E.wX_.    [.yXeXtXyXXXo   H yX6Xn.u iXiXiXiXiXiXiXiXiXiXiXiXiXiXiXiXiXiXiXiX",
"iXiXiXiXiXiXiXiXiXiXiXiXiXiXiXiXiXiXiXr.p w.r.s.f.C.E.wX_.  . [.yXtXtXuX.XX   H uX6Xn.u iXiXiXiXiXiXiXiXiXiXiXiXiXiXiXiXiXiXiXiX",
"iXiXiXiXiXiXiXiXiXiXiXiXiXiXiXiXiXiXiXiXw.y r.t.s.Z.F.qX,.    `.yX8XrXyX{.X b XXeX1Xz.w.iXiXiXiXiXiXiXiXiXiXiXiXiXiXiXiXiXiXiXiX",
"iXiXiXiXiXiXiXiXiXiXiXiXiXiXiXiXiXiXiXiXp.y.w.y y.p.s.:XOXb c XXyXrXtX8X Xl N XX,X!.m.iXiXiXiXiXiXiXiXiXiXiXiXiXiXiXiXiXiXiXiXiX",
"iXiXiXiXiXiXiXiXiXiXiXiXiXiXiXiXiXiXiXf.a.p.r.w.r.r.a Y.,X8X8XeX8X8X8X*X@X*.@ l <. .iXiXiXiXiXiXiXiXiXiXiXiXiXiXiXiXiXiXiXiXiXiX",
"iXiXiXiXiXiXiXiXiXiXiXiXiXiXiXiXiXiXb.f.p.r.w.p w.a ] 5.-X*X5XtX9X&X&X$X1.- o o : ..iXiXiXiXiXiXiXiXiXiXiXiXiXiXiXiXiXiXiXiXiXiX",
"iXiXiXiXiXiXiXiXiXiXiXiXiXiXiXiXiXB.a.p.u.y r.r.w.a ..4.#X#X*X*X%X#X#X$X3.M [ q 7 I iXiXiXiXiXiXiXiXiXiXiXiXiXiXiXiXiXiXiXiXiXiX",
"iXiXiXiXiXiXiXiXiXiXiXiXiXiXiXiXB.g.f.w.y r.y t t a M -.7.#X#X7.#X7.#.@.3.q.8.$.R K iXiXiXiXiXiXiXiXiXiXiXiXiXiXiXiXiXiXiXiXiXiX",
"iXiXiXiXiXiXiXiXiXiXiXiXiXiXiXiXa.p.u.w.r.w.y + * y p M #.7.7.7.7.5.7 % q 4.+.I K iXiXiXiXiXiXiXiXiXiXiXiXiXiXiXiXiXiXiXiXiXiXiX",
"iXiXiXiXiXiXiXiXiXiXiXiXiXiXiXB.p.r.w.w.w.w.w.t * o + w S $.+.+.O.X.` ' ` o.I L iXiXiXiXiXiXiXiXiXiXiXiXiXiXiXiXiXiXiXiXiXiXiXiX",
"iXiXiXiXiXiXiXiXiXiXiXiXiXiXiXiXiXiXp k A W.W.W.n 9 w r.d.g g g j I T T I I P iXiXiXiXiXiXiXiXiXiXiXiXiXiXiXiXiXiXiXiXiXiXiXiXiX",
"iXiXiXiXiXiXiXiXiXiXiXiXiXiXiXiXiXiXiX+.2.#X8.8.-.C v.n.M.g.g.g.k 4 K L P P iXiXiXiXiXiXiXiXiXiXiXiXiXiXiXiXiXiXiXiXiXiXiXiXiXiX",
"iXiXiXiXiXiXiXiXiXiXiXiXiXiXiXiX..#.7.8.0.2.o. .C v.| 2.+X+X+X+X*.a 4 Y ..` P iXiXiXiXiXiXiXiXiXiXiXiXiXiXiXiXiXiXiXiXiXiXiXiXiX",
"iXiXiXiXiXiXiXiXiXiXiXiXiXiXiX..-.3.#.#.#.| k g.Z | 2.0.#X#X#X#X@X;.j.h Y ` P 2 iXiXiXiXiXiXiXiXiXiXiXiXiXiXiXiXiXiXiXiXiXiXiXiX",
"iXiXiXiXiXiXiXiXiXiXiXiXiXiXiX..3.O.T 5 q x d s.Z +.0.#X#X0.#X#X7.1.c.g U T P iXiXiXiXiXiXiXiXiXiXiXiXiXiXiXiXiXiXiXiXiXiXiXiXiX",
"iXiXiXiXiXiXiXiXiXiXiXiXiXiXiXiXiXR 4 & - x v b.Z X.2.0.#X#X8.9.#.` x q ' L iXiXiXiXiXiXiXiXiXiXiXiXiXiXiXiXiXiXiXiXiXiXiXiXiXiX",
"iXiXiXiXiXiXiXiXiXiXiXiXiXiXiXiXiXiX` ` P ' ,XK.Z ..X.2.#X6.O.Y 7 l J E L iXiXiXiXiXiXiXiXiXiXiXiXiXiXiXiXiXiXiXiXiXiXiXiXiXiXiX",
"iXiXiXiXiXiXiXiXiXiXiXiXiXiXiX_.'.].;.R 2 R oXm.p.A  .$.#.O.U 8 h l c N =.XXiXiXiXiXiXiXiXiXiXiXiXiXiXiXiXiXiXiXiXiXiXiXiXiXiXiX",
"iXiXiXiXiXiXiXiXiXiXiXiXiXiXiXD F D H } { | `.d.u.g.C C %.j 8 g.j.a e F '.,.G iXiXiXiXiXiXiXiXiXiXiXiXiXiXiXiXiXiXiXiXiXiXiXiXiX",
"iXiXiXiXiXiXiXiXiXiXiXiXiXiX[.c z z c oXoX_.D s w.u.a.g.Z.z.z.z.a.s.r F D b H iXiXiXiXiXiXiXiXiXiXiXiXiXiXiXiXiXiXiXiXiXiXiXiXiX",
"iXiXiXiXiXiXiXiXiXiXiXiXiXiXiX[.[.'.H v v ; @ iXw.w.u.f.x.P.P.i.r.y.b.B c H iXiXiXiXiXiXiXiXiXiXiXiXiXiXiXiXiXiXiXiXiXiXiXiXiXiX",
"iXiXiXiXiXiXiXiXiXiXiXiXiXiXiX}.[.G c - @ @ iXiXiXw.w.u.i.l.I.k.e.r.f.d.iXiXiXiXiXiXiXiXiXiXiXiXiXiXiXiXiXiXiXiXiXiXiXiXiXiXiXiX",
"iXiXiXiXiXiXiXiXiXiXiXiXiXiXiXG ~.D ; X   iXiXiXiXiXw.u.p.z.P.I.k.u.g.B.iXiXiXiXiXiXiXiXiXiXiXiXiXiXiXiXiXiXiXiXiXiXiXiXiXiXiXiX",
"iXiXiXiXiXiXiXiXiXiXiXiXiXiXiXiXiXiXiXiXiXiXiXiXiXiXw.s.g.x.L.I.k.u.s.b.b.iXiXiXiXiXiXiXiXiXiXiXiXiXiXiXiXiXiXiXiXiXiXiXiXiXiXiX",
"iXiXiXiXiXiXiXiXiXiXiXiXiXiXiXiXiXiXiXiXiXiXiXiXiXiXw.p.x.P.L.L.P.k.i.p.B.iXiXiXiXiXiXiXiXiXiXiXiXiXiXiXiXiXiXiXiXiXiXiXiXiXiXiX",
"iXiXiXiXiXiXiXiXiXiXiXiXiXiXiXiXiXiXiXiXiXiXiXiXiXH m.N.^.).)./.I.P.f t p.B.N.,.iXiXiXiXiXiXiXiXiXiXiXiXiXiXiXiXiXiXiXiXiXiXiXiX",
"iXiXiXiXiXiXiXiXiXiXiXiXiXiXiXiXiXiXiXiXiXiXiXiXiX_._.[.oX6X6X(.P.h.= = t j.D G _.iXiXiXiXiXiXiXiXiXiXiXiXiXiXiXiXiXiXiXiXiXiXiX",
"iXiXiXiXiXiXiXiXiXiXiXiXiXiXiXiXiXiXiXiXiXiXiXiX*.*._.'.[.XXXX(.h.o ; @ @ e l F ,.iXiXiXiXiXiXiXiXiXiXiXiXiXiXiXiXiXiXiXiXiXiXiX",
"iXiXiXiXiXiXiXiXiXiXiXiXiXiXiXiXiXiXiXiXiXiXiX  , E ].oX7X6X7X2XV   X - ; l F G _.N.Q iXiXiXiXiXiXiXiXiXiXiXiXiXiXiXiXiXiXiXiXiX",
"iXiXiXiXiXiXiXiXiXiXiXiXiXiXiXiXiXiXiXiXiXiXiX$ 0 ;.3XtX=X9.:.>.W $ O @ - 9 9 N n ' ] m iXiXiXiXiXiXiXiXiXiXiXiXiXiXiXiXiXiXiXiX",
"iXiXiXiXiXiXiXiXiXiXiXiXiXiXiXiXiXiXiXiXiXiX. 1 ;.6X=X=X>./ ! / ~ L 3 # O $ , , > 6 &.~.*.&.iXiXiXiXiXiXiXiXiXiXiXiXiXiXiXiXiXiX",
"iXiXiXiXiXiXiXiXiXiXiXiXiXiXiXiXiXiXiXiXiXiXX c {.|._ ) ( ^ ^ ! ! ! ! 2 # . $ % 9 J W.~.J P 2 K K K iXiXiXiXiXiXiXiXiXiXiXiXiXiX",
"iXiXiXiXiXiXiXiXiXiXiXiXiXiXiXiXiXiXiXiXiXiXX F } _ / / / / / / / / / ! 2 . # < 9 v v x 7 > 3 K K K K K K K iXiXiXiXiXiXiXiXiXiX",
"iXiXiXiXiXiXiXiXiXiXiXiXiXiXiXiXiXiXiXiXiXiXo ; 0 L L L K L L K K K K L 1 . O & - - - & # # % > > > > > > > iXiXiXiXiXiXiXiXiXiX",
"iXiXiXiXiXiXiXiXiXiXiXiXiXiXiXiXiXiXiXiXiXiX          .                                                     iXiXiXiXiXiXiXiXiXiX"
};
