/* XPM */
static char *result[] = {
/* columns rows colors chars-per-pixel */
"64 64 41 1 ",
"  c black",
". c #00001C",
"X c #00002C",
"o c #000034",
"O c #202020",
"+ c #2C2C2C",
"@ c gray22",
"# c #700000",
"$ c #7C0000",
"% c #585400",
"& c #6C4824",
"* c #484848",
"= c gray33",
"- c #646464",
"; c gray44",
": c #7C7C7C",
"> c #880000",
", c #BC0000",
"< c #C80000",
"1 c #EC0000",
"2 c #FC2020",
"3 c #A85400",
"4 c #9C6038",
"5 c #A0643C",
"6 c #FC7800",
"7 c #BC7848",
"8 c #FC5C5C",
"9 c #FC7C7C",
"0 c #B4AC00",
"q c #DC8854",
"w c #FCF440",
"e c gray55",
"r c #989898",
"t c gray66",
"y c #B4B4B4",
"u c #FCB890",
"i c #C0C0C0",
"p c #D0D0D0",
"a c gainsboro",
"s c #ECECEC",
"d c None",
/* pixels */
"dddddddddddddddddddddddddddddddddddddddddddddddddddddddddddddddd",
"dddddddddddddddddddddddddddddddddddddddddddddddddddddddddddddddd",
"dddddddddddddddddddddddddddddddddddddddddddddddddddddddddddddddd",
"dddddddddddddddddddddddddddddddddddddddddddddddddddddddddddddddd",
"dddddddddddddddddddddddddddddddddddddddddddddddddddddddddddddddd",
"dddddddddddddddddddddddddddddddddddddddddddddddddddddddddddddddd",
"dddddddddddddddddddddddddddddddddddddddddddddddddddddddddddddddd",
"dddddddddddddddddddddddddddddddddddddddddddddddddddddddddddddddd",
"dddddddddddddddddddddddddddddddddddddddddddddddddddddddddddddddd",
"dddddddddddddddddddddddddddddddddddddddddddddddddddddddddddddddd",
"dddddddddddddddddddddddddddddddddddddddddddddddddddddddddddddddd",
"dddddddddddddddddddddddddddddddddddddddddddddddddddddddddddddddd",
"dddddddddddddddddddddddddddddddddddddddddddddddddddddddddddddddd",
"dddddddddddddddddddddddddddddddddddddddddddddddddddddddddddddddd",
"dddddddddddddddddddddddddddddddddddddddddddddddddddddddddddddddd",
"dddddddddddddddddddddddddddddddddddddddddddddddddddddddddddddddd",
"ddddddddddddddddddddddddddtte:=*dddddddddddddddddddddddddddddddd",
"dddddddddddddddddddddddddtpe==*@*ddddddddddddddddddddddddddddddd",
"dddddddddddddddddddddddddee-==*@Oddddddddddddddddddddddddddddddd",
"dddddddddddddddddddddddddr:;==*@Oddddddddddddddddddddddddddddddd",
"ddddddddddddddddddddddddrisie;-=+Odddddddddddddddddddddddddddddd",
"dddddddddddddddddddddddrr+>,,,># +Oddddddddddddddddddddddddddddd",
"dddddddddddddddddddddddd%1,222,8#ddddddddddddddddddddddddddddddd",
"dddddddddddddddddddddddd#,88998,>ddddddddddddddddddddddddddddddd",
"ddddddddddddddddddddddd11,29w092,>dddddddddddddddddddddddddddddd",
"dddddddddddddddddddddddd>,290w92,>dddddddddddddddddddddddddddddd",
"dddddddddddddddddddddyaa#,289988#a1adddddddddddddddddddddddddddd",
"ddddddddddddddddddddyaaaa1,2222#<aaayddddddddddddddddddddddddddd",
"ddddddddddddddddddddyaaa1a#>2>#:rryyyddddddddddddddddddddddddddd",
"dddddddddddddddddddddiittruu,55::rre;ddddddddddddddddddddddddddd",
"dddddddddddddddddddddyrr:-O*$eppye-==ddddddddddddddddddddddddddd",
"dddddddddddddddddddddyr:::OO*:yyye:-=ddddddddddddddddddddddddddd",
"dddddddddddddddddddddyae:::OO*:te::-=ddddddddddddddddddddddddddd",
"ddddddddddddddddddddddaye;::OOO;::;-=ddddddddddddddddddddddddddd",
"ddddddddddddddddddddddayee;e;OOO:;-=dddddddddddddddddddddddddddd",
"ddddddddddddddddddddddda=;=;;=OOO;=@dddddddddddddddddddddddddddd",
"ddddddddddddddddddddddd  OOOq74OOO  dddddddddddddddddddddddddddd",
"dddddddddddddddddddddddOOOOO63&OOO  dddddddddddddddddddddddddddd",
"dddddddddddddddddddddddtttt::*::::-*dddddddddddddddddddddddddddd",
"dddddddddddddddddddddddtssyy:-ysssr:-ddddddddddddddddddddddddddd",
"ddddddddddddddddddddddysssyy:-aiiiir:ddddddddddddddddddddddddddd",
"ddddddddddddddddddddddyssyyr-*:aaaaayddddddddddddddddddddddddddd",
"dddddddddddddddddddddd:ssyyr-*ratttt::dddddddddddddddddddddddddd",
"dddddddddddddddddddddda:::::*;r;aaaat:dddddddddddddddddddddddddd",
"ddddddddddddddddddddddaare:--;rtaaaay:dddddddddddddddddddddddddd",
"dddddddddddddddddddddasyre:--;rypaaairdddddddddddddddddddddddddd",
"dddddddddddddddddddddssyr::--drypaaaaprddddddddddddddddddddddddd",
"dddddddddddddddddddddpsyr::-=ddyypaaaprddddddddddddddddddddddddd",
"ddddddddddddddddddddppyyr:--=ddrypaaappddddddddddddddddddddddddd",
"ddddddddddddddddddddpyrt:;:-@ddrriaaappddddddddddddddddddddddddd",
"ddddddddddddddddddddye;rre=*=dddriaaaappdddddddddddddddddddddddd",
"dddddddddddddddddddd:----:-=ddddiptiiita;ddddddddddddddddddddddd",
"dddddddddddddddddddd ----=@Oddddit:ttee*dddddddddddddddddddddddd",
"dddddddddddddddddddd  ***@ ddddd-*:eee;@dddddddddddddddddddddddd",
"dddddddddddddddddddd  o .. dddddd-;-=*@+dddddddddddddddddddddddd",
"dddddddddddddddddddd    . dddddddooX .  dddddddddddddddddddddddd",
"ddddddddddddddddddddd      dddddddoX..  dddddddddddddddddddddddd",
"ddddddddddddddddddddd      dddddddooX.. dddddddddddddddddddddddd",
"ddddddddddddddddddddo  X.  dddddddd XX. dddddddddddddddddddddddd",
"ddddddddddddddddddddoXXXO ddddddddd     dddddddddddddddddddddddd",
"ddddddddddddddddddddXXXXXddddddddddoo.   ddddddddddddddddddddddd",
"dddddddddddddddddddddddddddddddddddooo.  ddddddddddddddddddddddd",
"ddddddddddddddddddddddddddddddddddooooX. ddddddddddddddddddddddd",
"dddddddddddddddddddddddddddddddddd XX... ddddddddddddddddddddddd"
};
